<svg width="66" height="74" viewBox="0 0 66 74" fill="none" xmlns="http://www.w3.org/2000/svg">
    <path d="M1.20042 0.887695C22.2623 0.887695 43.3238 0.887695 64.3856 0.887695C65.138 1.29971 65.3923 1.92061 65.3916 2.78549C65.3735 25.7054 65.3773 48.6254 65.3769 71.5454C65.3769 72.9618 64.9225 73.4227 63.5254 73.4227C43.0366 73.4231 22.5479 73.4231 2.05912 73.4227C0.662375 73.4227 0.209124 72.9618 0.208739 71.5446C0.208354 48.6246 0.212208 25.7047 0.194094 2.78472C0.193323 1.91946 0.446542 1.29855 1.20042 0.887695ZM11.5423 37.1554C11.5423 48.0639 11.5477 58.9719 11.5277 69.8804C11.5265 70.4685 11.6626 70.6053 12.2515 70.6046C25.9457 70.5857 39.6399 70.5857 53.3346 70.6046C53.9231 70.6053 54.0588 70.4685 54.0584 69.8804C54.041 48.0639 54.041 26.2473 54.0584 4.43083C54.0588 3.84307 53.9239 3.70586 53.335 3.70663C39.6407 3.72552 25.9461 3.72552 12.2519 3.70663C11.6633 3.70586 11.5269 3.84269 11.528 4.43083C11.5477 15.3385 11.5423 26.247 11.5423 37.1554ZM3.04194 8.1131C3.04194 9.41157 3.05774 10.71 3.03269 12.0077C3.02498 12.4086 3.13868 12.52 3.53912 12.5138C5.09659 12.4907 6.65522 12.4907 8.21269 12.5138C8.61391 12.5196 8.72105 12.4066 8.71835 12.0074C8.70062 9.4108 8.70062 6.81425 8.71835 4.2177C8.72105 3.81763 8.61275 3.70586 8.2123 3.71164C6.65483 3.73477 5.09621 3.73477 3.53874 3.71164C3.13752 3.70586 3.02536 3.8184 3.03307 4.21847C3.05774 5.51616 3.04194 6.81463 3.04194 8.1131ZM62.5437 8.18363C62.5437 6.86166 62.5283 5.53967 62.553 4.21808C62.5607 3.81763 62.4478 3.70548 62.0469 3.71164C60.4894 3.73477 58.9308 3.73477 57.3734 3.71164C56.9725 3.70586 56.8646 3.81802 56.8677 4.21808C56.8854 6.81463 56.8854 9.41119 56.8677 12.0077C56.865 12.4074 56.9725 12.52 57.3734 12.5142C58.9308 12.4911 60.4894 12.4911 62.0469 12.5142C62.4478 12.52 62.5611 12.4082 62.553 12.0077C62.5275 10.7336 62.5437 9.45821 62.5437 8.18363ZM8.70872 19.7299C8.70872 18.4315 8.69292 17.133 8.71797 15.8353C8.72568 15.4349 8.61313 15.3227 8.21192 15.3289C6.65445 15.352 5.09582 15.352 3.53835 15.3289C3.13752 15.3231 3.0296 15.4352 3.03269 15.8353C3.05042 18.4319 3.05042 21.0284 3.03269 23.625C3.02999 24.0246 3.13752 24.1372 3.53835 24.1314C5.09582 24.1083 6.65445 24.1083 8.21192 24.1314C8.61275 24.1372 8.72568 24.0254 8.71797 23.625C8.69292 22.3269 8.70872 21.028 8.70872 19.7299ZM56.8769 19.6667C56.8769 20.9887 56.8831 22.3107 56.8723 23.6323C56.8696 23.9526 56.8846 24.1407 57.3105 24.1329C58.915 24.104 60.5207 24.111 62.1259 24.1295C62.4782 24.1337 62.5522 24.0162 62.5507 23.6874C62.5383 21.0438 62.5372 18.3999 62.5518 15.7559C62.5537 15.4044 62.4397 15.3273 62.1105 15.3304C60.5291 15.3462 58.9474 15.352 57.366 15.3273C56.9533 15.3208 56.8611 15.4534 56.8685 15.8422C56.8916 17.1168 56.8769 18.3922 56.8769 19.6667ZM3.04194 31.3472C3.04194 32.6456 3.05774 33.9441 3.03269 35.2418C3.02498 35.6426 3.13868 35.7536 3.53912 35.7479C5.09659 35.7247 6.65522 35.7247 8.21269 35.7479C8.61391 35.7536 8.72067 35.6403 8.71797 35.241C8.70024 32.6445 8.70024 30.0479 8.71797 27.4514C8.72067 27.0513 8.61198 26.9396 8.21192 26.9453C6.65445 26.9685 5.09582 26.9685 3.53835 26.9453C3.13714 26.9396 3.02498 27.0521 3.03269 27.4522C3.05774 28.7502 3.04194 30.0487 3.04194 31.3472ZM62.5437 31.3472C62.5437 30.0487 62.5279 28.7502 62.553 27.4525C62.5607 27.0529 62.4489 26.9396 62.0473 26.9457C60.4898 26.9688 58.9312 26.9688 57.3737 26.9457C56.9737 26.9399 56.8646 27.0513 56.8677 27.4514C56.8858 30.0479 56.8854 32.6445 56.8677 35.241C56.865 35.6399 56.9714 35.754 57.373 35.7479C58.9304 35.7247 60.4891 35.7247 62.0465 35.7479C62.4466 35.7536 62.5607 35.643 62.553 35.2418C62.5279 33.9441 62.5437 32.6456 62.5437 31.3472ZM3.04194 42.8927C3.04194 44.2147 3.05735 45.5367 3.03269 46.8583C3.02498 47.2583 3.13752 47.3709 3.53835 47.3651C5.09582 47.342 6.65445 47.342 8.21192 47.3651C8.61236 47.3709 8.72067 47.2587 8.71797 46.859C8.70024 44.2625 8.70024 41.6659 8.71797 39.0694C8.72067 38.6701 8.61352 38.5568 8.2123 38.563C6.65483 38.5861 5.09621 38.5861 3.53874 38.563C3.13829 38.5572 3.02459 38.6686 3.03269 39.0694C3.05813 40.3432 3.04194 41.6181 3.04194 42.8927ZM62.5437 43.0176C62.5437 41.743 62.5225 40.4677 62.5549 39.1939C62.5668 38.726 62.4859 38.5437 61.9594 38.5579C60.4498 38.598 58.9378 38.5957 57.4277 38.5587C56.9309 38.5464 56.865 38.7268 56.8681 39.1569C56.8862 41.706 56.8924 44.2559 56.8638 46.8047C56.8584 47.3 57.0299 47.3717 57.4612 47.3647C58.9717 47.3412 60.4833 47.332 61.993 47.3689C62.4898 47.3813 62.5618 47.2017 62.553 46.7708C62.5271 45.5205 62.5437 44.269 62.5437 43.0176ZM3.04194 54.5096C3.04194 55.8315 3.05735 57.1535 3.03269 58.4751C3.02498 58.8752 3.13714 58.9877 3.53835 58.9819C5.09582 58.9588 6.65445 58.9588 8.21192 58.9819C8.61236 58.9877 8.72067 58.876 8.71797 58.4759C8.70024 55.8793 8.70024 53.2828 8.71797 50.6862C8.72067 50.2869 8.61391 50.1736 8.21269 50.1794C6.65522 50.2025 5.09659 50.2025 3.53912 50.1794C3.13868 50.1736 3.02459 50.2846 3.03269 50.6855C3.05813 51.96 3.04194 53.235 3.04194 54.5096ZM56.8769 54.52C56.8769 55.842 56.8839 57.1639 56.8719 58.4855C56.8692 58.8097 56.8916 58.9912 57.3125 58.9839C58.917 58.9553 60.5226 58.9615 62.1279 58.9808C62.4836 58.985 62.5518 58.8617 62.5503 58.5364C62.5383 55.8924 62.5368 53.2489 62.5518 50.6049C62.5537 50.2499 62.4339 50.179 62.1082 50.1821C60.5268 50.1971 58.9447 50.2041 57.3637 50.1786C56.9471 50.1721 56.8615 50.3104 56.8685 50.6959C56.8912 51.9704 56.8769 53.2454 56.8769 54.52ZM8.70872 66.1981C8.70872 64.8996 8.69292 63.6012 8.71797 62.3035C8.72568 61.9034 8.61313 61.7909 8.21192 61.797C6.65445 61.8201 5.09582 61.8201 3.53835 61.797C3.13791 61.7912 3.0296 61.9034 3.0323 62.3031C3.05003 64.8996 3.05003 67.4962 3.0323 70.0927C3.0296 70.4924 3.13675 70.6053 3.53797 70.5992C5.09544 70.576 6.65406 70.576 8.21153 70.5992C8.61198 70.6049 8.72529 70.4936 8.71758 70.0927C8.69292 68.7946 8.70872 67.4962 8.70872 66.1981ZM56.8769 66.1977C56.8769 67.4962 56.8927 68.7946 56.8677 70.0923C56.86 70.4928 56.9729 70.6046 57.3737 70.5988C58.9312 70.5757 60.4898 70.5757 62.0473 70.5988C62.4481 70.6046 62.5557 70.492 62.553 70.0923C62.5352 67.4958 62.5352 64.8992 62.553 62.3027C62.5557 61.903 62.4478 61.7905 62.0473 61.7963C60.4898 61.8194 58.9312 61.8194 57.3737 61.7963C56.9729 61.7905 56.86 61.9026 56.8677 62.3027C56.8927 63.6008 56.8769 64.8996 56.8769 66.1977Z" fill="black"/>
    <path d="M11.5423 37.1555C11.5423 26.247 11.5477 15.3389 11.5276 4.4305C11.5265 3.84235 11.6629 3.70553 12.2514 3.7063C25.9457 3.72519 39.6403 3.72519 53.3345 3.7063C53.9235 3.70553 54.0583 3.84274 54.058 4.4305C54.0406 26.247 54.0406 48.0635 54.058 69.88C54.0583 70.4682 53.9227 70.605 53.3341 70.6042C39.6399 70.5853 25.9457 70.5853 12.251 70.6042C11.6621 70.605 11.5261 70.4682 11.5272 69.88C11.5477 58.972 11.5423 48.0635 11.5423 37.1555ZM32.7745 18.7376C22.6989 18.6832 14.3608 27.0529 14.3612 37.1547C14.3616 47.2499 22.6901 55.6 32.7753 55.5788C42.9741 55.5576 51.2013 47.3231 51.2167 37.1208C51.2317 27.0394 42.8739 18.6601 32.7745 18.7376ZM35.6239 64.9224C32.8635 64.9224 30.1028 64.9201 27.3424 64.9236C26.3026 64.9247 25.7106 65.4454 25.7113 66.3408C25.7121 67.2353 26.3041 67.7552 27.3455 67.7556C32.8666 67.7579 38.3877 67.7579 43.9084 67.7556C44.9475 67.7552 45.5414 67.2318 45.5406 66.3373C45.5399 65.4439 44.9467 64.9251 43.9053 64.924C41.145 64.9205 38.3846 64.9224 35.6239 64.9224ZM22.8758 66.3034C22.8623 65.4847 22.2561 64.9085 21.4232 64.9224C20.6034 64.9359 20.028 65.5406 20.0419 66.3739C20.0553 67.1937 20.6604 67.7703 21.4929 67.7564C22.3112 67.7429 22.8897 67.1347 22.8758 66.3034Z" fill="#FEFEFE"/>
    <path d="M32.7745 18.7376C42.8743 18.6597 51.2317 27.0391 51.2163 37.1208C51.2009 47.3232 42.9738 55.5576 32.7749 55.5788C22.6897 55.6 14.3612 47.25 14.3608 37.1547C14.3605 27.0533 22.6989 18.6833 32.7745 18.7376ZM48.3739 36.9767C48.5361 34.2668 47.5876 31.6467 46.1912 29.2017C44.8831 26.9111 43.0181 25.0615 40.7341 23.7461C37.7371 22.0202 34.4649 21.2752 31.0035 21.6594C24.2383 22.4106 16.5018 28.3268 17.263 38.6151C17.8296 46.276 24.1774 52.3216 31.9277 52.7391C41.2475 53.2409 48.4644 45.6879 48.3739 36.9767Z" fill="#030102"/>
    <path d="M35.624 64.9223C38.3843 64.9223 41.1451 64.9204 43.9054 64.9235C44.9468 64.9246 45.5403 65.4434 45.5407 66.3368C45.5415 67.2313 44.9472 67.7547 43.9085 67.7551C38.3874 67.7574 32.8663 67.7574 27.3456 67.7551C26.3042 67.7547 25.7122 67.2352 25.7114 66.3402C25.7107 65.4449 26.3027 64.9246 27.3425 64.9231C30.1029 64.9204 32.8636 64.9223 35.624 64.9223Z" fill="#020101"/>
    <path d="M22.8758 66.3033C22.8897 67.1347 22.3108 67.7428 21.493 67.7563C20.6605 67.7702 20.0554 67.1936 20.0419 66.3738C20.028 65.5406 20.6034 64.9359 21.4232 64.9224C22.2565 64.9085 22.8623 65.4847 22.8758 66.3033Z" fill="#0F0508"/>
    <path d="M48.3739 36.9765C48.4645 45.688 41.2475 53.2407 31.9282 52.7385C24.1774 52.321 17.83 46.2754 17.2634 38.6145C16.5023 28.3265 24.2387 22.41 31.0039 21.6588C34.4654 21.2746 37.7376 22.02 40.7346 23.7455C43.0185 25.0605 44.8836 26.9105 46.1917 29.2011C47.5876 31.6461 48.5362 34.2666 48.3739 36.9765ZM25.7091 37.0902C25.7091 39.8521 25.7064 42.6143 25.7102 45.3762C25.7126 47.1037 26.9497 47.355 27.8794 46.8373C30.0797 45.6125 32.208 44.2585 34.3644 42.955C36.8395 41.4589 39.2892 39.9183 41.7983 38.4815C43.0432 37.7685 42.8412 36.4161 41.858 35.8846C41.4649 35.6722 41.088 35.4302 40.7045 35.2001C36.4661 32.6579 32.2257 30.1184 27.9915 27.5688C27.4115 27.2196 26.8599 27.1294 26.2995 27.5734C25.8347 27.9419 25.7052 28.4468 25.7064 29.0168C25.7126 31.7078 25.7091 34.3988 25.7091 37.0902Z" fill="#0E6F70"/>
    <path d="M25.709 37.0903C25.709 34.3989 25.7125 31.708 25.7063 29.0166C25.7052 28.447 25.8343 27.9417 26.2995 27.5732C26.8595 27.1292 27.411 27.219 27.9914 27.5686C32.2256 30.1181 36.466 32.6576 40.7044 35.1998C41.0879 35.4299 41.4652 35.672 41.858 35.8843C42.8412 36.4158 43.0431 37.7683 41.7982 38.4813C39.2892 39.9181 36.8395 41.4586 34.3643 42.9548C32.2079 44.2583 30.0796 45.6123 27.8793 46.8371C26.9497 47.3547 25.7121 47.1034 25.7102 45.376C25.7067 42.6141 25.709 39.8522 25.709 37.0903ZM38.575 37.1554C35.1883 35.1231 31.9134 33.1579 28.5811 31.158C28.5811 35.1987 28.5811 39.123 28.5811 43.1537C31.9188 41.1503 35.1822 39.1916 38.575 37.1554Z" fill="#010001"/>
    <path d="M38.575 37.1554C35.1818 39.192 31.9189 41.1503 28.5812 43.1537C28.5812 39.1234 28.5812 35.1987 28.5812 31.158C31.9139 33.1579 35.1884 35.1227 38.575 37.1554Z" fill="#CE3D45"/>
</svg>
