<svg width="69" height="70" viewBox="0 0 69 70" fill="none" xmlns="http://www.w3.org/2000/svg">
    <path d="M0.221924 40.4571C0.600788 39.7205 1.20088 39.4623 2.02182 39.5055C3.01889 39.5579 4.02175 39.4947 5.02075 39.5286C5.45858 39.5432 5.56919 39.4164 5.56727 38.9817C5.54954 35.3152 5.55571 31.6488 5.55763 27.9823C5.56033 22.2149 9.27421 17.7171 14.9202 16.6406C20.9176 15.4967 27.1017 20.0257 27.8509 26.0864C28.0267 27.5067 27.9538 28.9266 27.9627 30.3464C27.9804 33.2128 27.9792 36.0795 27.9565 38.9458C27.9527 39.4091 28.0606 39.5471 28.535 39.5301C29.6227 39.4916 30.7122 39.5105 31.801 39.5201C32.8004 39.5294 33.2976 40.0478 33.3011 41.0575C33.3269 48.16 28.3454 54.7186 21.3717 56.7178C20.8602 56.8646 20.7261 57.0712 20.7527 57.5707C20.7974 58.4129 20.7901 59.26 20.7538 60.1029C20.7365 60.5061 20.8664 60.5993 21.251 60.6618C24.7379 61.2268 27.0323 63.5763 27.5183 67.0377C27.6759 68.1616 27.4578 68.6603 26.6542 69.011C20.0597 69.011 13.4652 69.011 6.87075 69.0114C6.06176 68.6507 5.84785 68.1623 6.00472 67.0365C6.48572 63.5836 8.79205 61.2229 12.2762 60.6618C12.6643 60.5993 12.7869 60.5014 12.7719 60.1014C12.7376 59.1914 12.7329 58.2783 12.7738 57.3688C12.7923 56.9618 12.6162 56.8523 12.282 56.7482C6.03786 54.8023 2.14669 50.6452 0.586143 44.2935C0.46859 43.8148 0.53334 43.2872 0.222694 42.8574C0.221923 42.0581 0.221924 41.2576 0.221924 40.4571ZM8.24707 37.5198C8.27174 39.1571 8.05745 40.8043 8.35691 42.4296C9.14663 46.7135 13.0386 49.8697 17.6921 49.3706C21.3736 48.9755 24.0892 46.4792 25.0293 43.074C25.5334 41.2479 25.2362 39.3737 25.2771 37.5202C25.1418 37.2916 24.9183 37.3961 24.7379 37.3961C19.4207 37.3899 14.1035 37.3899 8.78665 37.3961C8.60589 37.3957 8.38235 37.2913 8.24707 37.5198ZM16.7374 34.7787C19.3606 34.7787 21.9841 34.7645 24.6069 34.7907C25.1272 34.7961 25.38 34.7209 25.311 34.1251C25.2524 33.6205 25.2763 33.1025 25.3064 32.593C25.3284 32.218 25.2131 32.0916 24.8273 32.1028C23.9166 32.129 23.0047 32.1078 22.0932 32.1116C21.5416 32.114 21.0899 31.9293 20.807 31.4352C20.2971 30.5442 20.893 29.5174 21.9941 29.4604C22.9476 29.411 23.9058 29.4303 24.8608 29.4507C25.212 29.4584 25.3237 29.3524 25.3056 29.0033C25.2771 28.449 25.274 27.8913 25.2991 27.3367C25.3183 26.9089 25.1761 26.7509 24.7313 26.7667C23.8433 26.7979 22.953 26.7898 22.0643 26.7709C21.2152 26.7528 20.6648 26.2479 20.6336 25.5033C20.6016 24.7375 21.1543 24.1663 22.0222 24.1193C22.6208 24.0869 23.2224 24.1108 23.8225 24.1073C24.5248 24.1031 24.5267 24.0984 24.1698 23.4721C22.4019 20.3692 18.8877 18.6664 15.3607 19.2777C12.6898 19.7405 10.6771 21.2001 9.30658 23.5407C9.11464 23.8687 8.95662 24.1512 9.58254 24.115C10.1807 24.0803 10.7831 24.0927 11.3828 24.1119C12.3136 24.1416 12.8929 24.6681 12.891 25.4524C12.889 26.241 12.3051 26.7601 11.3759 26.7732C10.5091 26.7856 9.64151 26.7929 8.77509 26.7686C8.3812 26.7574 8.2066 26.8669 8.22472 27.2858C8.249 27.8405 8.25825 28.3993 8.21508 28.952C8.18078 29.3918 8.35923 29.4631 8.74503 29.4515C9.61106 29.4257 10.479 29.4295 11.3458 29.4476C12.3155 29.4677 12.9106 30.01 12.8898 30.8174C12.8694 31.6067 12.2928 32.0981 11.3466 32.1093C10.4798 32.1197 9.61222 32.1309 8.7458 32.1032C8.35075 32.0904 8.18386 32.1791 8.21585 32.6111C8.25516 33.1419 8.25825 33.6803 8.21547 34.2102C8.17731 34.6843 8.34034 34.7941 8.8013 34.7899C11.4468 34.7672 14.0923 34.7787 16.7374 34.7787ZM4.42335 42.1864C4.17784 42.1864 3.99978 42.1864 3.8221 42.1864C2.90442 42.1864 2.90442 42.1864 3.06167 43.0717C4.17206 49.3232 8.98168 53.8857 15.2439 54.6277C22.5607 55.4945 29.4627 50.1904 30.491 42.9195C30.5627 42.4119 30.5669 42.0739 29.8786 42.1733C29.3995 42.2427 28.9008 42.2111 28.414 42.1791C28.0062 42.1521 27.8748 42.2705 27.8 42.704C26.8993 47.9457 22.4481 51.8735 17.2512 52.0512C11.8738 52.235 7.20375 48.7366 5.88793 43.5315C5.78503 43.1238 5.85633 42.6015 5.62277 42.3159C5.34103 41.971 4.78526 42.2627 4.42335 42.1864ZM16.754 66.4673C19.1987 66.4673 21.6434 66.4692 24.0881 66.4646C24.3737 66.4642 24.7645 66.5856 24.5494 66.0044C24.0091 64.546 22.245 63.2679 20.7041 63.2676C18.1484 63.2668 15.5927 63.256 13.037 63.271C11.1901 63.2818 9.91515 64.233 9.063 65.8078C8.75235 66.3821 8.8198 66.4657 9.48657 66.4665C11.9089 66.4688 14.3313 66.4673 16.754 66.4673ZM18.0949 58.9867C18.0949 58.6094 18.0783 58.2313 18.0999 57.8555C18.1187 57.5275 18.0382 57.3707 17.6663 57.3876C17.0465 57.4158 16.4241 57.4073 15.8032 57.3903C15.5095 57.3822 15.4166 57.4913 15.4243 57.7765C15.4405 58.3527 15.4289 58.9301 15.4289 59.5067C15.4289 60.5982 15.4289 60.5982 16.4892 60.5982C18.0952 60.5982 18.0952 60.5982 18.0949 58.9867Z" fill="#020202"/>
    <path d="M6.89107 69.1363C6.91034 69.0905 6.9034 69.0489 6.86987 69.0119C13.4644 69.0119 20.0588 69.0119 26.6533 69.0115C26.619 69.0485 26.6125 69.0901 26.6325 69.136C20.0523 69.1363 13.4717 69.1363 6.89107 69.1363Z" fill="#131313"/>
    <path d="M45.1773 7.50943C46.2726 7.50827 47.3684 7.5075 48.4637 7.50635C48.5242 8.04593 48.7501 8.47567 49.2658 8.71193C50.1199 9.10313 50.8633 8.636 51.1809 7.50943C52.2763 7.50866 53.3716 7.5075 54.467 7.50635C54.6608 8.48222 55.0744 8.83295 56.0553 8.83796C57.0774 8.84297 58.0999 8.83642 59.122 8.8395C63.1246 8.85184 65.8468 11.5783 65.8491 15.5824C65.8518 20.56 65.8503 25.5381 65.8495 30.5157C65.8487 34.6906 63.1547 37.3865 58.979 37.3885C54.4901 37.3904 50.0008 37.4313 45.5126 37.363C44.1787 37.3426 43.0602 37.5423 42.2493 38.6754C42.2342 38.6966 42.1757 38.6866 42.1375 38.6908C41.8735 37.691 41.5428 37.4251 40.5072 37.3785C37.1887 37.2293 34.4261 34.5349 34.3922 31.2496C34.3363 25.8279 34.3467 20.4051 34.3895 14.9834C34.4111 12.2397 36.4098 9.81075 39.0545 9.08309C40.4999 8.68534 41.9702 8.8846 43.4302 8.8449C44.5298 8.81445 44.879 8.57087 45.1773 7.50943ZM51.2696 21.8215C52.9623 22.4879 54.546 23.1504 55.8044 24.3988C56.0275 24.6204 56.1651 24.8975 56.2249 25.2143C56.3979 26.1308 56.9263 26.6238 57.6505 26.5575C58.4221 26.487 58.89 25.8911 58.8931 24.9472C58.8989 23.214 58.8183 21.4765 58.9147 19.7491C59.0261 17.755 58.1516 16.347 56.6122 15.2347C54.6971 13.8515 52.5268 13.024 50.2875 12.363C49.4223 12.1075 48.6846 12.686 48.6121 13.5848C48.5944 13.8056 48.6005 14.0288 48.6002 14.2508C48.5994 17.4281 48.6013 20.6055 48.5971 23.7829C48.5967 24.0619 48.7474 24.4061 48.1461 24.2365C45.2224 23.4113 42.3233 25.0867 41.5154 28.0151C40.7192 30.9027 42.6266 33.6923 45.5442 33.9082C47.9712 34.0874 50.3511 32.4073 51.0395 30.0278C51.2264 29.3818 51.2696 28.7185 51.2692 28.0502C51.2684 26.0087 51.2696 23.9675 51.2696 21.8215Z" fill="#E0E7EC"/>
    <path d="M45.1772 7.50948C44.8789 8.57092 44.5297 8.8145 43.4301 8.84456C41.9702 8.88465 40.5002 8.685 39.0545 9.08275C36.4094 9.81042 34.4106 12.2393 34.3894 14.9831C34.347 20.4047 34.3366 25.8276 34.3921 31.2492C34.426 34.5345 37.1887 37.229 40.5071 37.3781C41.5424 37.4247 41.873 37.6903 42.1374 38.6905C42.1756 38.6858 42.2342 38.6962 42.2492 38.675C43.0601 37.5419 44.179 37.3427 45.5125 37.3627C50.0003 37.4313 54.49 37.3904 58.979 37.3881C63.1546 37.3862 65.8487 34.6902 65.8494 30.5154C65.8502 25.5377 65.8517 20.5597 65.849 15.582C65.8471 11.5783 63.1245 8.8515 59.122 8.83917C58.0999 8.83608 57.0773 8.84263 56.0552 8.83762C55.0743 8.833 54.6608 8.48189 54.4669 7.50601C54.6554 6.52667 55.0643 6.15127 56.0491 6.17709C57.8871 6.22489 59.7367 5.99017 61.5601 6.42415C65.5723 7.37921 68.4884 10.9771 68.5096 15.1068C68.5369 20.4406 68.5416 25.7751 68.5092 31.1089C68.4795 35.9941 64.4835 40.0005 59.5876 40.0437C54.8315 40.0861 50.0751 40.0637 45.3191 40.0444C44.828 40.0425 44.495 40.1882 44.1667 40.5362C43.4351 41.3121 42.6604 42.0471 41.9108 42.8063C41.4387 43.2842 40.9164 43.5656 40.2423 43.2619C39.6126 42.9778 39.4156 42.4498 39.4345 41.7931C39.4511 41.2157 39.6218 40.5335 39.3771 40.0888C39.1281 39.6363 38.3523 39.7465 37.8208 39.5576C34.194 38.2719 31.7397 34.9477 31.7135 31.1012C31.6772 25.7231 31.668 20.3439 31.7162 14.9657C31.7582 10.2348 35.7784 6.25957 40.5083 6.17709C41.4861 6.16014 42.4639 6.16939 43.4421 6.17093C44.5421 6.17285 44.8874 6.4411 45.1772 7.50948Z" fill="#020202"/>
    <path d="M17.3113 0.842041C21.3085 0.909874 25.254 2.46233 28.5489 5.6162C29.27 6.30609 29.3517 7.05573 28.794 7.66199C28.2425 8.26131 27.4223 8.20697 26.6893 7.52247C20.9489 2.16055 12.5483 2.16132 6.83569 7.5244C6.10687 8.2089 5.28169 8.26247 4.73016 7.6616C4.19906 7.08309 4.24569 6.33616 4.88047 5.7114C7.18218 3.44553 9.91556 1.96399 13.0633 1.25097C14.2792 0.97501 15.5141 0.842426 17.3113 0.842041Z" fill="#030303"/>
    <path d="M16.8342 7.53101C19.5487 7.59691 21.8962 8.48954 23.853 10.3445C24.5518 11.0071 24.6273 11.8064 24.0654 12.3938C23.5142 12.97 22.7677 12.9426 22.0543 12.3194C18.8237 9.49894 14.8431 9.49316 11.6488 12.304C10.9107 12.9534 10.1468 12.9731 9.59336 12.3572C9.0796 11.7852 9.1617 10.9901 9.82577 10.3584C11.7968 8.48299 14.1652 7.58651 16.8342 7.53101Z" fill="#040404"/>
    <path d="M51.1806 7.50932C50.863 8.63589 50.1199 9.10302 49.2654 8.71182C48.7501 8.47556 48.5239 8.04582 48.4634 7.50624C48.6341 6.62903 49.0673 6.19043 49.7784 6.17501C50.4995 6.15921 50.9216 6.56081 51.1806 7.50932Z" fill="#040404"/>
    <path d="M16.7373 34.7787C14.0918 34.7787 11.4463 34.7667 8.80123 34.7899C8.34027 34.7937 8.17686 34.6843 8.2154 34.2102C8.25818 33.6802 8.25509 33.1418 8.21578 32.6111C8.18379 32.179 8.35106 32.0904 8.74573 32.1031C9.61176 32.1309 10.4793 32.1197 11.3465 32.1093C12.2927 32.0981 12.8697 31.6067 12.8897 30.8174C12.9105 30.0099 12.3155 29.4676 11.3458 29.4476C10.4789 29.4295 9.61138 29.4256 8.74496 29.4515C8.35916 29.463 8.18032 29.3917 8.21501 28.952C8.25818 28.3993 8.24893 27.8404 8.22465 27.2858C8.20615 26.8665 8.38074 26.7574 8.77502 26.7686C9.64144 26.7928 10.509 26.7855 11.3758 26.7732C12.3051 26.7601 12.8886 26.2409 12.8909 25.4524C12.8928 24.668 12.3135 24.142 11.3827 24.1119C10.783 24.0926 10.181 24.0803 9.58247 24.115C8.95655 24.1512 9.11457 23.8687 9.30651 23.5407C10.6771 21.2001 12.6897 19.7409 15.3606 19.2776C18.8876 18.6663 22.4022 20.3687 24.1697 23.4721C24.5262 24.098 24.5243 24.103 23.8225 24.1073C23.2224 24.1111 22.6207 24.0868 22.0222 24.1192C21.1542 24.1662 20.6015 24.7374 20.6335 25.5032C20.6647 26.2479 21.2151 26.7528 22.0642 26.7709C22.953 26.7898 23.8433 26.7979 24.7313 26.7666C25.176 26.7512 25.3183 26.9092 25.299 27.3367C25.2739 27.8913 25.2766 28.449 25.3055 29.0032C25.3237 29.3528 25.2119 29.4584 24.8608 29.4507C23.9053 29.4303 22.9472 29.411 21.994 29.4603C20.8929 29.5174 20.2974 30.5441 20.807 31.4352C21.0895 31.9293 21.5416 32.1143 22.0931 32.1116C23.0046 32.1074 23.9165 32.1286 24.8272 32.1027C25.213 32.0916 25.3283 32.218 25.3063 32.593C25.2762 33.1025 25.2524 33.6205 25.3109 34.125C25.3799 34.7209 25.1271 34.7956 24.6068 34.7906C21.984 34.7644 19.3605 34.7787 16.7373 34.7787Z" fill="#DFE6EB"/>
    <path d="M25.2771 37.5199C25.2362 39.3734 25.5334 41.2477 25.0293 43.0738C24.0892 46.4789 21.3736 48.9753 17.6921 49.3703C13.0386 49.8694 9.14662 46.7136 8.3569 42.4294C8.05743 40.8044 8.27211 39.1568 8.24706 37.5195C13.9239 37.5199 19.6003 37.5199 25.2771 37.5199Z" fill="#0E7071"/>
    <path d="M16.754 66.4672C14.3317 66.4672 11.9089 66.4688 9.48659 66.4661C8.81982 66.4653 8.75199 66.3817 9.06302 65.8074C9.91479 64.233 11.1901 63.2814 13.0371 63.2706C15.5927 63.256 18.1484 63.2667 20.7041 63.2671C22.245 63.2675 24.0091 64.5456 24.5494 66.004C24.7649 66.5852 24.3737 66.4634 24.0881 66.4642C21.6434 66.4692 19.1987 66.4672 16.754 66.4672Z" fill="#0E7071"/>
    <path d="M18.095 58.9868C18.095 60.5982 18.095 60.5982 16.4897 60.5982C15.429 60.5982 15.429 60.5982 15.4294 59.5067C15.4294 58.9298 15.441 58.3528 15.4248 57.7766C15.4167 57.4914 15.5096 57.3823 15.8037 57.3904C16.4242 57.4074 17.0466 57.4159 17.6668 57.3877C18.0387 57.3708 18.1192 57.5276 18.1004 57.8556C18.0784 58.2314 18.095 58.6095 18.095 58.9868Z" fill="#CB8445"/>
    <path d="M25.2771 37.5197C19.6003 37.5197 13.9235 37.5197 8.24707 37.5197C8.38235 37.2912 8.60589 37.3956 8.78627 37.3956C14.1035 37.3895 19.4207 37.3895 24.7375 37.3956C24.9183 37.3956 25.1418 37.2912 25.2771 37.5197Z" fill="#1B7282"/>
    <path d="M51.2697 21.8214C51.2697 23.9677 51.2689 26.0085 51.27 28.0497C51.2704 28.718 51.2277 29.3813 51.0403 30.0273C50.3516 32.4068 47.9716 34.0869 45.5451 33.9076C42.6275 33.6922 40.7196 30.9022 41.5163 28.0146C42.3238 25.0862 45.2232 23.4108 48.147 24.236C48.7483 24.4056 48.5976 24.0614 48.598 23.7824C48.6022 20.605 48.6003 17.4276 48.601 14.2502C48.601 14.0282 48.5949 13.8051 48.613 13.5842C48.6851 12.6854 49.4231 12.1069 50.2884 12.3625C52.5273 13.0235 54.6979 13.8509 56.6131 15.2342C58.1528 16.3461 59.0273 17.7544 58.9156 19.7486C58.8188 21.4764 58.8998 23.2139 58.894 24.9467C58.8909 25.8906 58.423 26.4864 57.6514 26.557C56.9272 26.6233 56.3988 26.1307 56.2257 25.2138C56.166 24.897 56.0284 24.6195 55.8052 24.3983C54.5461 23.1503 52.962 22.4877 51.2697 21.8214ZM55.9764 21.1172C56.0531 21.2051 56.2207 21.2694 56.218 21.1461C56.1991 20.2882 56.4015 19.4194 56.1159 18.5731C56.1151 18.3499 55.9625 18.2089 55.8261 18.0682C54.6378 16.8418 53.1066 16.1962 51.5653 15.5711C51.1903 15.4188 51.2238 15.704 51.2226 15.9229C51.2188 16.8102 51.2288 17.6978 51.2169 18.585C51.2126 18.898 51.3213 19.0498 51.635 19.1516C53.1536 19.6449 54.5835 20.3425 55.9764 21.1172ZM45.9166 31.2529C47.3199 31.2552 48.6134 29.9891 48.6296 28.5974C48.6419 27.5009 47.7535 26.6244 46.6385 26.6325C45.266 26.6425 43.9625 27.9691 43.9733 29.3451C43.9818 30.4454 44.8024 31.251 45.9166 31.2529Z" fill="#020202"/>
    <path d="M55.9763 21.1173C54.5834 20.3426 53.1535 19.645 51.6353 19.1512C51.3216 19.0491 51.2129 18.8976 51.2172 18.5847C51.2291 17.6975 51.2191 16.8098 51.2229 15.9226C51.2237 15.7037 51.1906 15.4185 51.5656 15.5707C53.1069 16.1959 54.6377 16.8414 55.8264 18.0678C55.9628 18.2085 56.1158 18.3496 56.1162 18.5727C56.0326 19.4191 56.2734 20.2828 55.9763 21.1173Z" fill="#CA3D45"/>
    <path d="M45.9165 31.2529C44.8022 31.2509 43.9817 30.4454 43.9732 29.3454C43.9624 27.9695 45.2659 26.6429 46.6384 26.6329C47.7534 26.6248 48.6418 27.5012 48.6294 28.5977C48.6132 29.9891 47.3198 31.2552 45.9165 31.2529Z" fill="#CC3D46"/>
    <path d="M55.9763 21.1173C56.2735 20.2828 56.0326 19.4191 56.1158 18.5728C56.4014 19.4191 56.1991 20.2879 56.218 21.1458C56.2207 21.2695 56.053 21.2052 55.9763 21.1173Z" fill="#CC3D46"/>
</svg>
