<svg width="61" height="62" viewBox="0 0 61 62" fill="none" xmlns="http://www.w3.org/2000/svg">
    <path d="M30.3506 61.6792C29.2587 61.2634 28.4397 60.4744 27.6307 59.6758C27.4364 59.4843 27.3015 59.5171 27.0749 59.6423C25.1305 60.7161 23.2053 60.0674 22.3447 58.0544C22.2572 57.8501 22.1662 57.7622 21.9408 57.7218C20.4677 57.4582 19.4872 56.6172 19.0513 55.1734C18.9862 54.9576 18.8713 54.8628 18.6458 54.8223C17.2318 54.5679 16.3306 53.7104 15.8604 52.3799C15.771 52.1263 15.6423 52.0195 15.3748 51.9691C13.2411 51.5655 11.93 49.3359 12.6973 47.341C12.9475 46.6904 12.4071 46.4757 12.209 46.0722C12.0275 45.7022 11.7373 45.94 11.4852 45.9808C10.5082 46.1396 9.58547 45.9993 8.78458 45.3942C6.60967 43.7512 4.42937 42.1147 2.28645 40.4304C0.769836 39.2384 0.557856 37.2199 1.7195 35.674C2.19434 35.0423 2.68844 34.4253 3.17484 33.8028C3.7811 33.027 4.16998 32.9302 5.06145 33.3291C5.64343 34.1073 5.63033 34.5501 5.01173 35.331C4.54615 35.9184 4.07632 36.503 3.62731 37.1031C3.23573 37.6269 3.30665 38.2278 3.8181 38.6198C5.8847 40.2034 7.95593 41.7809 10.0345 43.3492C10.6878 43.8422 11.1981 43.7759 11.7265 43.1322C12.3397 42.3853 12.9243 41.6148 13.5198 40.8532C16.0955 37.5583 18.6724 34.2646 21.2447 30.9669C21.7696 30.294 21.7415 29.7425 21.1245 29.2672C19.0771 27.6905 17.0217 26.1246 14.9586 24.569C14.2864 24.0622 13.7025 24.1786 13.1733 24.8588C12.4954 25.731 11.817 26.6029 11.1302 27.4685C10.554 28.195 10.0938 28.2752 9.29641 27.8092C8.75143 27.1582 8.72175 26.7112 9.21817 26.0644C9.95162 25.1082 10.6839 24.1508 11.4455 23.2177C12.7066 21.6722 14.7026 21.4109 16.3017 22.6049C18.4381 24.2002 20.5521 25.8255 22.6673 27.4488C23.4774 28.0709 23.923 28.9053 23.9735 29.9329C23.9862 30.1876 24.0008 30.3553 24.335 30.4034C26.2104 30.674 28.0816 30.9731 29.9528 31.2714C30.1563 31.3038 30.2924 31.2078 30.4411 31.1145C32.4607 29.8484 34.685 29.4638 37.0233 29.6164C37.4642 29.6453 37.6796 29.6211 37.7274 29.0807C37.8014 28.2459 38.2404 27.5475 38.9091 27.0341C41.0856 25.3614 43.2547 23.6775 45.4631 22.0476C47.0453 20.8802 49.0413 21.2521 50.329 22.8948C52.9248 26.2059 55.5098 29.5259 58.0986 32.8424C58.7064 33.6209 59.3235 34.3925 59.9174 35.1815C61.0995 36.7509 60.8775 38.772 59.3339 39.9811C57.2195 41.6372 55.0774 43.259 52.9237 44.8639C51.735 45.7496 50.4485 45.7981 49.1365 45.1121C48.9488 45.0138 48.8024 44.8519 48.6185 45.1576C47.8724 46.3975 46.8063 47.3425 45.6797 48.2186C45.3687 48.4602 45.3467 48.6217 45.5456 48.9659C46.8267 51.1828 45.8732 53.7551 43.5141 54.0954C42.5132 54.2399 41.9971 54.5598 41.5169 55.4023C41.0039 56.3023 40.0438 56.6815 39.0028 56.7413C38.7118 56.7579 38.5723 56.8457 38.4659 57.1433C37.8473 58.8707 36.6186 59.6192 34.8006 59.4226C34.6406 59.4053 34.4668 59.285 34.3516 59.5382C33.8394 60.6652 32.9313 61.325 31.7731 61.6789C31.2995 61.6792 30.825 61.6792 30.3506 61.6792ZM27.1111 33.2501C25.8296 33.0586 24.6595 32.9245 23.5094 32.6913C23.0377 32.5957 22.8507 32.7768 22.6033 33.0964C20.7105 35.543 18.7996 37.9753 16.8961 40.4135C15.9506 41.6249 15.0048 42.8358 14.0671 44.053C13.7141 44.5109 14.2533 44.6874 14.4043 44.9687C14.5986 45.3299 14.767 44.9718 14.8919 44.8639C15.8034 44.0765 16.6895 43.2598 17.6052 42.4774C18.6879 41.5524 19.9042 41.0914 21.3129 41.6395C22.6977 42.1783 23.4173 43.2424 23.5198 44.7063C23.5414 45.0142 23.6759 45.0998 23.9076 45.1942C25.0707 45.6671 25.7564 46.552 26.0412 47.7534C26.0979 47.9923 26.1534 48.106 26.4251 48.1688C28.4038 48.6259 29.4818 50.4894 28.8683 52.4138C28.7642 52.7399 28.8625 52.8474 29.0829 53.027C30.6485 54.3043 30.7838 56.0857 29.4537 57.6227C29.3743 57.7145 29.1538 57.8139 29.3042 57.9469C29.8568 58.436 30.2777 59.139 31.074 59.2631C31.6039 59.3455 31.9281 58.9775 32.1724 58.5335C32.4056 58.1099 32.2222 57.8397 31.9076 57.5711C31.6379 57.3406 31.3885 57.0843 31.1438 56.8265C30.6886 56.3466 30.6612 55.698 31.0632 55.2247C31.4914 54.7209 32.1512 54.6327 32.7008 55.0497C33.045 55.311 33.3468 55.6297 33.6609 55.9292C34.0606 56.3104 34.4398 56.7182 34.9521 56.9544C35.5036 57.2088 35.9044 57.0485 36.165 56.5177C36.4351 55.9677 36.1896 55.5843 35.8146 55.2123C34.8187 54.2234 33.8324 53.2251 32.8388 52.2338C32.443 51.8392 32.3732 51.3774 32.5783 50.8814C32.7694 50.4193 33.141 50.1888 33.6443 50.1742C34.0775 50.1614 34.3882 50.3923 34.673 50.6787C35.7599 51.7721 36.8479 52.8648 37.9329 53.9601C38.1013 54.1301 38.2663 54.3008 38.5199 54.3278C39.0178 54.3814 39.4734 54.3266 39.7305 53.814C39.9775 53.3215 39.8549 52.9029 39.4772 52.5294C38.0574 51.1258 36.6383 49.7217 35.223 48.3134C34.5967 47.6902 34.5377 46.9629 35.0577 46.4453C35.5838 45.9211 36.2817 45.9843 36.9254 46.6206C38.3738 48.0517 39.8187 49.4862 41.2675 50.9165C41.6325 51.2768 42.0048 51.6226 42.5263 51.7629C43.3179 51.976 43.8583 51.4661 43.6798 50.674C43.5411 50.0582 43.1314 49.6384 42.6893 49.243C39.4063 46.3077 36.1164 43.3808 32.8411 40.4374C32.5906 40.2123 32.416 40.1923 32.1262 40.3395C31.1264 40.8482 30.1305 41.3709 29.0987 41.8079C27.2996 42.5695 25.1864 41.986 24.0552 40.4767C23.0095 39.0815 23.1344 37.1887 24.33 35.6093C25.0592 34.6465 26.03 33.9844 27.1111 33.2501ZM58.247 37.2515C58.3056 36.8175 57.9668 36.5246 57.7186 36.2063C54.6538 32.2723 51.5774 28.3472 48.5102 24.4152C47.919 23.6571 47.3578 23.5642 46.5974 24.1439C45.8135 24.7417 45.0349 25.346 44.2502 25.9426C43.042 26.8611 41.8252 27.7687 40.6223 28.6945C39.9116 29.2414 39.8584 29.8049 40.4188 30.5195C40.6377 30.7989 40.8647 31.0718 41.0829 31.3516C43.9662 35.0516 46.8456 38.7547 49.7332 42.4512C50.4647 43.3877 50.9172 43.4328 51.863 42.7129C53.8228 41.2206 55.7819 39.7271 57.7441 38.2378C58.0616 37.9969 58.2744 37.7106 58.247 37.2515ZM36.3839 31.9971C34.3242 31.991 33.0631 32.2974 31.6529 33.1881C30.3891 33.9859 29.1296 34.791 27.8874 35.6216C27.1 36.1481 26.3245 36.7039 25.9179 37.6142C25.5221 38.5007 25.8882 39.3154 26.8078 39.6253C27.4106 39.8288 27.9737 39.7228 28.5229 39.4511C29.6661 38.8865 30.8073 38.318 31.9512 37.7541C32.7382 37.366 33.0735 37.4069 33.7122 37.9827C34.3431 38.5515 34.9586 39.1374 35.5918 39.7032C38.1684 42.0053 40.7506 44.3008 43.3245 46.6056C43.5241 46.7844 43.6613 46.7925 43.8733 46.6229C45.0319 45.6949 46.1496 44.7355 46.9088 43.4244C47.0931 43.1064 47.0888 42.9067 46.8487 42.6027C44.5401 39.6793 42.2495 36.742 39.9636 33.8009C38.5707 32.0099 38.5784 32.0037 36.3839 31.9971ZM21.1114 44.7641C21.1275 44.5509 21.0343 44.3602 20.8913 44.1886C20.4947 43.7123 19.8753 43.713 19.2702 44.2187C18.6952 44.6993 18.1371 45.2004 17.5767 45.6979C16.7654 46.4179 15.9472 47.1305 15.154 47.8705C14.7454 48.2517 14.7951 48.8306 15.2214 49.2904C15.6122 49.7124 15.9942 49.7282 16.4509 49.3174C17.8742 48.0374 19.2926 46.7521 20.7117 45.4675C20.9167 45.2821 21.1264 45.0967 21.1114 44.7641ZM19.101 52.4605C19.3176 52.4759 19.4803 52.3699 19.631 52.2369C20.8886 51.13 22.1566 50.0339 23.3988 48.9096C23.8713 48.4822 23.7646 47.8736 23.2192 47.5233C22.722 47.2038 22.2595 47.3414 21.8679 47.6828C20.6943 48.7065 19.5473 49.7602 18.3822 50.7939C18.0708 51.0703 18.0049 51.3902 18.1756 51.7459C18.3606 52.1309 18.6258 52.4416 19.101 52.4605ZM22.342 55.3546C22.5016 55.3114 22.6754 55.2944 22.8184 55.1653C24.0047 54.0935 25.1991 53.0313 26.3808 51.9544C26.6456 51.7131 26.7419 51.409 26.5716 51.0487C26.402 50.6891 26.1372 50.5075 25.741 50.4952C25.4473 50.4864 25.1802 50.5866 24.9748 50.7642C23.8401 51.744 22.7166 52.7364 21.6005 53.737C21.3102 53.9971 21.2432 54.3305 21.4143 54.704C21.597 55.1033 21.9099 55.301 22.342 55.3546ZM27.1609 54.7911C27.061 54.8242 26.918 54.8443 26.8051 54.9136C25.9942 55.4116 25.3583 56.1161 24.6757 56.7617C24.4699 56.9563 24.5381 57.2323 24.7165 57.4582C25.0141 57.8347 25.4573 57.8941 25.9137 57.5291C26.5427 57.0265 27.1362 56.4784 27.7332 55.9369C27.9275 55.7604 28.0512 55.5457 27.8935 55.259C27.7378 54.9749 27.5197 54.8138 27.1609 54.7911Z" fill="#030302"/>
    <path d="M9.29713 27.8099C10.0946 28.2759 10.5547 28.1957 11.1309 27.4692C11.8174 26.6039 12.4961 25.7317 13.174 24.8595C13.7028 24.1789 14.2871 24.0629 14.9593 24.5697C17.0224 26.1252 19.0778 27.6912 21.1252 29.2679C21.7422 29.7431 21.7704 30.2943 21.2454 30.9676C18.6732 34.2652 16.0963 37.5594 13.5205 40.8539C12.9251 41.6155 12.3404 42.386 11.7272 43.1329C11.1992 43.7762 10.6885 43.8428 10.0352 43.3499C7.95665 41.782 5.88542 40.2041 3.81881 38.6204C3.30737 38.2285 3.23645 37.6276 3.62803 37.1038C4.07704 36.5037 4.54687 35.9194 5.01245 35.3317C5.63104 34.5512 5.64415 34.108 5.06217 33.3298C5.38939 32.6449 5.96096 32.1397 6.38993 31.5296C7.21588 31.9173 7.75084 31.8352 8.16285 31.2578C8.55597 30.7071 8.46039 30.1521 7.87648 29.5986C8.35016 29.0024 8.82345 28.4061 9.29713 27.8099Z" fill="#CF3D45"/>
    <path d="M42.845 13.886C42.8604 20.9449 37.0803 26.7647 30.0241 26.7944C22.8527 26.8249 17.0734 21.0729 17.0418 13.8737C17.0105 6.7801 22.7891 0.960311 29.8861 0.937571C37.0403 0.914061 42.8296 6.6984 42.845 13.886ZM40.4554 13.891C40.5052 8.18919 35.8266 3.20922 29.7285 3.31752C23.9145 3.42081 19.3913 8.26242 19.4232 13.8375C19.4568 19.7089 24.1284 24.4206 29.9748 24.4268C35.7144 24.433 40.462 19.66 40.4554 13.891Z" fill="#030202"/>
    <path d="M7.87658 29.599C8.4601 30.1524 8.55607 30.707 8.16294 31.2582C7.75093 31.8355 7.21597 31.9176 6.39003 31.5299C5.91673 30.8589 5.8832 30.3027 6.28673 29.8233C6.68525 29.3496 7.19747 29.2775 7.87658 29.599Z" fill="#050404"/>
    <path d="M27.1111 33.2501C26.03 33.9843 25.0592 34.6464 24.3303 35.6092C23.1348 37.189 23.0099 39.0818 24.0555 40.4766C25.1867 41.9859 27.3 42.5695 29.0991 41.8079C30.1309 41.3712 31.1268 40.8482 32.1266 40.3394C32.4164 40.1918 32.591 40.2119 32.8415 40.4373C36.1168 43.3808 39.4067 46.308 42.6897 49.2429C43.1317 49.6384 43.5414 50.0581 43.6802 50.674C43.8586 51.4664 43.3183 51.9759 42.5266 51.7628C42.0052 51.6225 41.6329 51.2768 41.2679 50.9164C39.8187 49.4861 38.3742 48.0516 36.9258 46.6206C36.2821 45.9842 35.5841 45.9214 35.058 46.4452C34.5381 46.9628 34.5975 47.6905 35.2234 48.3133C36.6386 49.7216 38.0581 51.1257 39.4776 52.5294C39.8553 52.9029 39.9779 53.3218 39.7308 53.814C39.4734 54.327 39.0182 54.3813 38.5202 54.3277C38.2666 54.3004 38.1017 54.13 37.9332 53.9601C36.8483 52.8647 35.7603 51.7724 34.6734 50.6786C34.3886 50.3919 34.0775 50.161 33.6447 50.1741C33.1414 50.1891 32.7694 50.4192 32.5786 50.8813C32.3736 51.377 32.4434 51.8387 32.8392 52.2338C33.8328 53.2247 34.8191 54.2233 35.815 55.2123C36.1896 55.5846 36.4351 55.9681 36.1653 56.5177C35.9048 57.0484 35.504 57.2091 34.9524 56.9544C34.4398 56.7177 34.0606 56.3103 33.6613 55.9292C33.3472 55.6293 33.0458 55.3109 32.7012 55.0496C32.1516 54.6322 31.4914 54.7209 31.0636 55.2246C30.6616 55.6979 30.6889 56.3466 31.1441 56.8264C31.3889 57.0842 31.6382 57.3405 31.908 57.571C32.2225 57.8397 32.406 58.1102 32.1728 58.5334C31.9284 58.9774 31.6039 59.3455 31.0744 59.263C30.2781 59.1389 29.8572 58.4359 29.3045 57.9468C29.1542 57.8138 29.3747 57.7144 29.4541 57.6227C30.7841 56.0856 30.6489 54.3042 29.0833 53.027C28.8628 52.847 28.7646 52.7398 28.8686 52.4138C29.4818 50.4894 28.4038 48.6259 26.4255 48.1688C26.1541 48.106 26.0983 47.9923 26.0416 47.7533C25.7572 46.552 25.0711 45.6674 23.9079 45.1941C23.6763 45.1001 23.5418 45.0142 23.5202 44.7062C23.4177 43.2424 22.6981 42.1779 21.3133 41.6394C19.9046 41.0914 18.6882 41.5523 17.6056 42.4773C16.6898 43.2597 15.8038 44.0764 14.8923 44.8638C14.7674 44.9718 14.599 45.3298 14.4047 44.9687C14.2532 44.6869 13.7144 44.5108 14.0675 44.0529C15.0052 42.8358 15.951 41.6244 16.8964 40.4134C18.8 37.9753 20.7109 35.5425 22.6037 33.0963C22.8511 32.7764 23.038 32.5953 23.5098 32.6912C24.6595 32.9244 25.8296 33.0585 27.1111 33.2501Z" fill="#FDFDFD"/>
    <path d="M58.247 37.2516C58.2748 37.7106 58.0616 37.9974 57.7441 38.2383C55.7819 39.7275 53.8232 41.2214 51.863 42.7133C50.9172 43.4333 50.4647 43.3886 49.7332 42.4516C46.8456 38.7547 43.9662 35.052 41.0829 31.352C40.8647 31.0722 40.6377 30.7989 40.4188 30.5199C39.8588 29.805 39.9116 29.2419 40.6223 28.695C41.8252 27.7692 43.042 26.8619 44.2502 25.9431C45.0349 25.3465 45.8135 24.7421 46.5974 24.1443C47.3578 23.5647 47.919 23.6576 48.5102 24.4157C51.5774 28.3477 54.6538 32.2728 57.7186 36.2067C57.9668 36.5247 58.3056 36.8176 58.247 37.2516Z" fill="#0F6F70"/>
    <path d="M36.3839 31.9972C38.5784 32.0037 38.5707 32.0099 39.9629 33.8013C42.2488 36.7424 44.5397 39.6797 46.8479 42.6031C47.0881 42.9072 47.0923 43.1068 46.9081 43.4248C46.1492 44.736 45.0311 45.6953 43.8725 46.6233C43.6605 46.7929 43.5233 46.7848 43.3237 46.606C40.7495 44.3012 38.1672 42.006 35.5911 39.7036C34.9578 39.1378 34.3423 38.5516 33.7114 37.9831C33.0728 37.4073 32.7374 37.3664 31.9504 37.7545C30.8069 38.3184 29.6653 38.8869 28.5221 39.4515C27.9729 39.7228 27.4098 39.8288 26.807 39.6257C25.8874 39.3155 25.5213 38.5011 25.9171 37.6146C26.3237 36.7039 27.0992 36.1481 27.8866 35.622C29.1288 34.7914 30.3883 33.9863 31.6521 33.1885C33.0631 32.2974 34.3238 31.991 36.3839 31.9972Z" fill="#FDFDFD"/>
    <path d="M21.1114 44.7641C21.1264 45.0967 20.9168 45.2821 20.7117 45.4675C19.2922 46.7517 17.8743 48.0374 16.451 49.3174C15.9942 49.7283 15.6127 49.7125 15.2215 49.2904C14.7956 48.8306 14.7455 48.2514 15.154 47.8706C15.9472 47.1309 16.7651 46.4179 17.5768 45.698C18.1375 45.2004 18.6956 44.6997 19.2703 44.2187C19.8754 43.7131 20.4947 43.7119 20.8913 44.1887C21.0343 44.3602 21.1276 44.551 21.1114 44.7641Z" fill="#FCFBFB"/>
    <path d="M19.101 52.4605C18.6258 52.4412 18.3607 52.1306 18.176 51.7459C18.0057 51.3902 18.0712 51.0703 18.3826 50.7939C19.5473 49.7603 20.6947 48.7065 21.8683 47.6829C22.2595 47.3414 22.722 47.2038 23.2196 47.5233C23.765 47.874 23.8717 48.4822 23.3992 48.9096C22.157 50.0339 20.889 51.1296 19.6314 52.2369C19.4803 52.3699 19.3176 52.4763 19.101 52.4605Z" fill="#FCFBFB"/>
    <path d="M22.3421 55.3546C21.9104 55.3007 21.597 55.1033 21.4144 54.7044C21.2428 54.3306 21.3099 53.9976 21.6005 53.7374C22.7167 52.7369 23.8406 51.7444 24.9748 50.7647C25.1803 50.587 25.4474 50.4868 25.741 50.4957C26.1372 50.508 26.402 50.6895 26.5716 51.0491C26.7416 51.4095 26.6456 51.714 26.3808 51.9548C25.1995 53.0317 24.0047 54.0939 22.8184 55.1658C22.6754 55.2949 22.5016 55.3118 22.3421 55.3546Z" fill="#FCFBFB"/>
    <path d="M27.1608 54.791C27.5197 54.8138 27.7378 54.9749 27.8935 55.2589C28.0508 55.5457 27.9274 55.7603 27.7332 55.9369C27.1362 56.4784 26.5426 57.0264 25.9136 57.529C25.4573 57.8936 25.0141 57.8346 24.7165 57.4581C24.5381 57.2322 24.4702 56.9563 24.6757 56.7617C25.3586 56.1157 25.9946 55.4111 26.8051 54.9136C26.918 54.8442 27.061 54.8242 27.1608 54.791Z" fill="#FBF9F9"/>
    <path d="M40.4554 13.8909C40.462 19.6598 35.714 24.4328 29.9752 24.4267C24.1284 24.4205 19.4572 19.7092 19.4236 13.8374C19.3916 8.2623 23.9149 3.4207 29.7289 3.31741C35.8266 3.20911 40.5055 8.18907 40.4554 13.8909ZM29.9008 21.6339C30.1941 21.6332 30.445 21.5199 30.6408 21.3125C31.0042 20.9279 30.9865 20.4349 30.9349 19.9674C30.8578 19.2737 30.9572 18.7468 31.7735 18.603C31.9724 18.568 32.1539 18.4018 32.3301 18.277C33.4262 17.5007 33.7908 16.4031 33.6505 15.12C33.5145 13.8763 32.7718 13.1378 31.5855 12.8237C30.9407 12.653 30.287 12.5138 29.6449 12.3342C29.1373 12.192 28.7237 11.9392 28.8151 11.304C28.8845 10.8215 29.2799 10.5571 29.9193 10.5467C30.5101 10.5366 31.0212 10.7621 31.4976 11.082C31.9585 11.3919 32.4099 11.4485 32.8354 11.035C33.2077 10.6731 33.2404 10.1189 32.9487 9.62128C32.7826 9.33839 32.5475 9.07515 32.2611 8.9919C31.1973 8.68125 30.7329 8.07885 30.9121 6.92491C30.9938 6.39843 30.4346 5.95867 29.9239 5.93786C29.4279 5.91781 28.9704 6.31287 28.8887 6.88059C28.8413 7.2105 28.8324 7.55198 28.8575 7.8846C28.8875 8.28543 28.7542 8.45733 28.3487 8.58605C27.1354 8.97147 26.2999 10.2214 26.3234 11.4936C26.3492 12.8777 27.0607 13.8609 28.3537 14.2837C29.0317 14.5053 29.7135 14.7153 30.3949 14.9254C31.1896 15.1705 31.4232 15.8319 30.8986 16.3742C30.6836 16.5966 30.4115 16.691 30.1047 16.7164C29.3065 16.7827 28.6405 16.5854 28.1236 15.9124C27.7637 15.4434 27.1878 15.3802 26.7512 15.6642C26.2794 15.9714 26.1064 16.5172 26.3049 17.0591C26.4995 17.5917 26.8969 17.9501 27.3412 18.2658C27.7764 18.5749 28.4397 18.6161 28.726 18.975C29.0417 19.37 28.7823 20.041 28.8336 20.5883C28.8945 21.2327 29.3196 21.6409 29.9008 21.6339Z" fill="#CA8445"/>
    <path d="M29.9008 21.634C29.3196 21.641 28.8945 21.2328 28.834 20.5892C28.7823 20.0415 29.0417 19.3709 28.7264 18.9758C28.4401 18.617 27.7768 18.5754 27.3416 18.2667C26.8972 17.951 26.4999 17.5926 26.3052 17.0599C26.1071 16.518 26.2802 15.9723 26.7515 15.6651C27.1882 15.3807 27.764 15.4442 28.124 15.9133C28.6409 16.5862 29.3065 16.784 30.1051 16.7173C30.4118 16.6918 30.684 16.597 30.899 16.375C31.4236 15.8327 31.19 15.171 30.3953 14.9262C29.7135 14.7162 29.0321 14.5061 28.3541 14.2845C27.061 13.8617 26.3492 12.8785 26.3237 11.4945C26.3002 10.2222 27.1358 8.97233 28.3491 8.58692C28.7549 8.45819 28.8883 8.2859 28.8578 7.88546C28.8328 7.55284 28.8413 7.21136 28.8891 6.88145C28.9708 6.31373 29.4283 5.91868 29.9243 5.93872C30.435 5.95953 30.9942 6.39929 30.9125 6.92577C30.7337 8.07971 31.1977 8.68211 32.2615 8.99276C32.5474 9.07639 32.7829 9.33925 32.949 9.62214C33.2408 10.1193 33.208 10.6739 32.8357 11.0359C32.4102 11.4494 31.9593 11.3927 31.498 11.0829C31.0216 10.7626 30.5105 10.5375 29.9197 10.5475C29.2803 10.5583 28.8848 10.8223 28.8155 11.3049C28.7241 11.94 29.1377 12.1929 29.6453 12.3351C30.2874 12.5151 30.941 12.6542 31.5858 12.8246C32.7725 13.1383 33.5152 13.8771 33.6509 15.1209C33.7912 16.4039 33.4266 17.5016 32.3305 18.2778C32.1543 18.4027 31.9728 18.5688 31.7739 18.6039C30.958 18.7473 30.8582 19.2741 30.9352 19.9683C30.9873 20.4358 31.0046 20.9283 30.6412 21.3134C30.4454 21.52 30.1941 21.6333 29.9008 21.634Z" fill="#020201"/>
</svg>
