<svg width="46" height="67" viewBox="0 0 46 67" fill="none" xmlns="http://www.w3.org/2000/svg">
    <path d="M24.0818 0.633301C24.7524 1.07075 24.9193 1.69474 24.9177 2.47675C24.8981 12.8818 24.9104 23.2869 24.8892 33.6916C24.8881 34.2759 25.0492 34.39 25.5941 34.3761C27.0946 34.3388 27.0969 34.365 27.6523 32.9809C30.7167 25.3424 33.775 17.7015 36.8568 10.0702C37.0506 9.59 36.9601 9.43198 36.5003 9.26933C34.6965 8.63031 33.2932 9.24389 32.5683 11.0388C31.4556 13.7941 30.349 16.5518 29.2398 19.3083C29.192 19.4274 29.1508 19.5495 29.096 19.6652C28.7615 20.3743 28.065 20.678 27.3987 20.4083C26.7388 20.1412 26.4409 19.4324 26.7203 18.6874C27.066 17.767 27.4484 16.8605 27.8157 15.9486C28.6224 13.946 29.4194 11.9391 30.2396 9.94188C31.4752 6.93217 34.4379 5.69074 37.4681 6.90249C39.8299 7.84714 42.1898 8.7972 44.5497 9.74686C45.8042 10.2518 46.0139 10.7628 45.5009 12.0393C42.5841 19.299 39.6672 26.5591 36.7516 33.8192C36.6884 33.9769 36.634 34.138 36.5747 34.2994C37.828 34.5415 38.099 34.8756 38.099 36.1695C38.0994 44.7296 38.0998 53.2897 38.0986 61.8494C38.0982 64.7886 36.3573 66.5392 33.4354 66.5395C25.9052 66.5403 18.3749 66.5407 10.8446 66.5395C7.99871 66.5392 6.22965 64.777 6.22849 61.9311C6.22541 53.3067 6.22657 44.6822 6.22811 36.0581C6.22811 34.8787 6.59734 34.4625 7.7559 34.3311C7.81487 34.0686 7.66032 33.8493 7.58054 33.6238C5.24607 27.0116 2.91738 20.3975 0.548609 13.7976C0.233724 12.9204 0.430672 12.1064 0.549381 11.2712C0.872745 9.00185 1.2308 6.73753 1.57112 4.47051C1.659 3.88468 1.87637 3.40522 2.48995 3.19632C3.07501 2.99745 3.52287 3.21945 3.94567 3.60795C5.90436 5.40784 7.86613 7.20388 9.83638 8.99068C10.1813 9.30363 10.4114 9.664 10.5625 10.1011C11.1202 11.7129 11.6937 13.3193 12.374 14.9284C12.374 14.7153 12.374 14.5021 12.374 14.289C12.374 10.32 12.3894 6.35096 12.3609 2.38232C12.3551 1.59646 12.5832 1.01833 13.2689 0.633686C16.8733 0.633301 20.4773 0.633301 24.0818 0.633301ZM8.82158 50.5602C8.81734 54.3966 8.81271 58.2327 8.81194 62.0691C8.81194 62.1932 8.85395 62.3177 8.87631 62.4418C8.97073 63.4127 9.62825 63.963 10.7117 63.9634C18.2766 63.965 25.842 63.9642 33.4069 63.9642C34.8888 63.9642 35.5325 63.3155 35.5333 61.8109C35.5352 58.7464 35.5167 55.6816 35.5494 52.6171C35.5556 52.0556 35.3833 51.9712 34.8738 51.9731C29.6661 51.9928 24.4583 51.9858 19.2506 51.9843C18.3868 51.9839 18.0373 51.7473 17.7382 50.9826C17.7201 50.845 17.702 50.707 17.6842 50.5694C17.9956 49.6325 18.3128 49.4043 19.3311 49.4043C24.5393 49.4032 29.7474 49.3985 34.9555 49.4132C35.3895 49.4143 35.5514 49.3268 35.5363 48.857C35.5005 47.7435 35.4824 46.6262 35.5417 45.5147C35.5741 44.9069 35.3552 44.8279 34.8214 44.8286C26.3985 44.8448 17.9752 44.8398 9.55233 44.8398C9.44518 44.8398 9.33688 44.8498 9.23089 44.8383C8.88671 44.8009 8.79421 44.9628 8.79768 45.2888C8.81541 47.0459 8.81541 48.8031 8.82158 50.5602ZM8.88517 36.9569C8.75837 37.0066 8.76569 37.1192 8.76569 37.2236C8.76492 38.788 8.76492 40.352 8.76569 41.9164C8.76569 42.0444 8.763 42.1762 8.88517 42.2637C9.10409 42.3959 9.34613 42.3335 9.57661 42.3338C13.0064 42.3381 16.4366 42.3369 19.8665 42.3369C24.8399 42.3369 29.8133 42.325 34.7867 42.352C35.4192 42.3554 35.5787 42.1724 35.5548 41.5619C35.5063 40.3204 35.5406 39.0755 35.5402 37.8326C35.5402 36.9345 35.5402 36.9345 34.673 36.9345C26.7627 36.9345 18.8524 36.9338 10.9421 36.9357C10.2565 36.9353 9.57083 36.9492 8.88517 36.9569ZM14.9493 12.9512C14.9493 15.9756 14.9482 18.9999 14.9512 22.0243C14.9516 22.2571 14.9327 22.488 15.0156 22.7219C16.3538 26.4894 17.6865 30.2591 19.0108 34.0316C19.0941 34.2682 19.1931 34.3738 19.4568 34.3688C20.2931 34.353 21.1299 34.3534 21.9662 34.368C22.2422 34.3731 22.3339 34.2894 22.3327 34.0065C22.3227 31.8401 22.32 29.6737 22.3347 27.5072C22.337 27.1654 22.1863 27.1284 21.9111 27.1361C21.3966 27.1507 20.8813 27.1534 20.3671 27.1369C19.5408 27.1103 19.0027 26.573 19.0185 25.8157C19.034 25.0849 19.5628 24.5881 20.3667 24.5684C20.8813 24.5557 21.3966 24.553 21.9107 24.57C22.1963 24.5792 22.3358 24.5199 22.3335 24.1892C22.32 22.4517 22.3223 20.7143 22.3324 18.9768C22.3339 18.6985 22.2464 18.5991 21.9651 18.6072C21.4077 18.623 20.8481 18.6353 20.2927 18.6014C19.4957 18.5529 18.9973 18.0117 19.0189 17.2744C19.0397 16.568 19.5416 16.0789 20.3174 16.0453C20.8527 16.0222 21.39 16.0238 21.9257 16.0419C22.2368 16.0523 22.3339 15.9351 22.332 15.6322C22.322 13.9163 22.3196 12.2 22.3339 10.4842C22.337 10.1346 22.2036 10.0432 21.8799 10.0571C21.3873 10.0783 20.8932 10.071 20.4003 10.0606C19.5732 10.0432 19.0513 9.57959 19.0205 8.85077C18.9885 8.08957 19.4976 7.54922 20.3378 7.49719C20.8292 7.46674 21.3268 7.45672 21.8167 7.4968C22.2626 7.53303 22.3455 7.35188 22.3362 6.95182C22.3115 5.87998 22.3096 4.80659 22.337 3.73475C22.3474 3.32659 22.2503 3.19208 21.8159 3.19748C19.7354 3.22176 17.6546 3.2233 15.5745 3.19748C15.0912 3.19131 14.9304 3.28998 14.9351 3.81453C14.964 6.85971 14.9493 9.90565 14.9493 12.9512ZM16.3596 34.3603C16.3245 34.2085 16.3168 34.1464 16.296 34.089C15.1605 30.9155 14.0128 27.7462 12.8908 24.5681C11.5453 20.7559 10.2226 16.9353 8.8871 13.1196C8.79383 12.8529 8.7418 12.6348 8.34251 12.9096C7.04866 13.7991 5.65808 14.4667 4.02507 14.4104C3.69284 14.3988 3.5194 14.5638 3.66393 14.8914C3.88786 15.3986 4.0031 15.9424 4.19928 16.452C5.46075 19.7303 6.54338 23.0719 7.74472 26.3714C8.65701 28.877 9.52689 31.3984 10.3983 33.919C10.4924 34.1915 10.5648 34.368 10.8986 34.3657C12.6985 34.3542 14.4988 34.3603 16.3596 34.3603ZM36.333 27.5311C36.6336 27.5539 36.6209 27.2768 36.6911 27.1026C37.9868 23.8936 39.2768 20.6827 40.5664 17.4714C41.2579 15.7497 41.9443 14.0265 42.6384 12.306C42.7575 12.0104 42.8936 11.8061 42.4037 11.6601C41.6036 11.4219 40.7981 11.1332 40.0762 10.7227C39.4849 10.3867 39.35 10.6499 39.1701 11.1016C38.1456 13.6731 37.1127 16.2407 36.0829 18.8099C35.1478 21.1425 34.2109 23.4746 33.2828 25.8099C33.2231 25.9602 33.0111 26.1745 33.2948 26.2943C34.2957 26.7164 35.307 27.1157 36.333 27.5311ZM29.8418 34.3638C31.1237 34.3638 32.3197 34.3557 33.5148 34.3696C33.8108 34.3731 33.8636 34.173 33.9415 33.9795C34.4283 32.7728 34.91 31.5645 35.3964 30.3574C35.477 30.1574 35.5344 30.0144 35.2542 29.8837C34.3234 29.449 33.3626 29.094 32.4079 28.7209C32.1817 28.6323 32.115 28.7051 32.0371 28.9009C31.3207 30.6985 30.5953 32.4922 29.8418 34.3638ZM3.81155 6.98265C3.56604 8.57096 3.34519 10.0255 3.11356 11.4785C3.07078 11.746 3.1309 11.8624 3.42575 11.8747C4.86605 11.9353 6.1121 11.4697 7.20052 10.5389C7.3913 10.3759 7.40941 10.2645 7.21208 10.0864C6.10285 9.0851 5.00364 8.073 3.81155 6.98265Z" fill="#020202"/>
    <path d="M17.7385 50.983C18.0372 51.7473 18.3871 51.9843 19.2505 51.9843C24.4582 51.9859 29.666 51.9928 34.8737 51.9731C35.3833 51.9712 35.5555 52.0556 35.5494 52.6172C35.5166 55.6816 35.5351 58.7465 35.5332 61.8109C35.532 63.3156 34.8888 63.9642 33.4068 63.9642C25.8419 63.9642 18.2765 63.965 10.7116 63.9635C9.62817 63.9631 8.97065 63.4127 8.87622 62.4418C8.89125 62.2083 8.919 61.9751 8.919 61.7415C8.9217 58.4478 8.92093 55.1536 8.92093 51.8598C8.92093 50.6766 8.9217 50.6504 10.0884 50.687C10.7143 50.7067 11.3668 50.4962 11.9665 50.845C12.0043 51.3079 12.249 51.6332 12.6552 51.8332C13.5035 52.2506 14.2054 51.8371 14.5569 50.7225C15.426 50.7163 16.2959 50.7259 17.1642 50.6947C17.4367 50.6847 17.5909 50.7995 17.7385 50.983Z" fill="#FEFEFE"/>
    <path d="M14.9493 12.9513C14.9493 9.90533 14.9639 6.85938 14.9354 3.81382C14.9304 3.28927 15.0915 3.19099 15.5748 3.19677C17.6553 3.22259 19.7362 3.22105 21.8163 3.19677C22.2506 3.19176 22.3478 3.32588 22.3373 3.73404C22.31 4.80588 22.3119 5.87927 22.3366 6.95111C22.3458 7.35117 22.263 7.53271 21.817 7.49609C21.3272 7.45601 20.8296 7.46603 20.3382 7.49648C19.4984 7.54851 18.9888 8.08886 19.0208 8.85006C19.0517 9.57888 19.5735 10.0425 20.4006 10.0599C20.8936 10.0703 21.3881 10.0776 21.8802 10.0564C22.2036 10.0425 22.337 10.1339 22.3343 10.4835C22.32 12.1993 22.3227 13.9152 22.3323 15.6315C22.3343 15.9344 22.2371 16.0516 21.9261 16.0412C21.3904 16.0234 20.8531 16.0219 20.3178 16.0446C19.5419 16.0782 19.0401 16.5673 19.0193 17.2737C18.9977 18.0106 19.4961 18.5518 20.2931 18.6007C20.8489 18.6346 21.4085 18.6223 21.9654 18.6065C22.2468 18.5984 22.3343 18.6982 22.3327 18.9761C22.3231 20.7136 22.3208 22.451 22.3339 24.1885C22.3366 24.5192 22.1967 24.5785 21.9111 24.5693C21.3969 24.5527 20.8812 24.5554 20.3671 24.5677C19.5635 24.5874 19.0343 25.0842 19.0189 25.8149C19.0027 26.5723 19.5411 27.1096 20.3675 27.1362C20.8816 27.1527 21.3973 27.15 21.9115 27.1354C22.1866 27.1277 22.3373 27.1647 22.335 27.5065C22.3208 29.673 22.3231 31.8394 22.3331 34.0058C22.3343 34.2883 22.2425 34.372 21.9666 34.3673C21.1302 34.3527 20.2935 34.3519 19.4571 34.3681C19.1931 34.3731 19.0941 34.2675 19.0112 34.0309C17.6869 30.2584 16.3537 26.489 15.016 22.7212C14.9327 22.4873 14.9516 22.2564 14.9516 22.0236C14.9485 19.0004 14.9493 15.976 14.9493 12.9513Z" fill="#E8EEEE"/>
    <path d="M8.88515 36.9569C9.57081 36.9492 10.2565 36.9353 10.9417 36.9353C18.852 36.9337 26.7623 36.9341 34.6726 36.9341C35.5398 36.9341 35.5398 36.9341 35.5398 37.8321C35.5398 39.0755 35.5059 40.32 35.5544 41.5614C35.5783 42.1716 35.4188 42.355 34.7863 42.3515C29.8129 42.3249 24.8395 42.3365 19.8661 42.3365C16.4362 42.3365 13.006 42.3381 9.5762 42.3334C9.34572 42.333 9.10368 42.3955 8.88477 42.2629C8.88515 40.4946 8.88515 38.7255 8.88515 36.9569Z" fill="#0E6F71"/>
    <path d="M8.8216 50.5603C8.81543 48.8031 8.81543 47.046 8.7977 45.2893C8.79423 44.9632 8.88712 44.8017 9.23091 44.8387C9.3369 44.8503 9.4452 44.8403 9.55235 44.8403C17.9752 44.8403 26.3985 44.8449 34.8214 44.8291C35.3556 44.828 35.5745 44.9074 35.5418 45.5152C35.4824 46.6263 35.5005 47.744 35.5364 48.8575C35.5514 49.3273 35.3895 49.4148 34.9555 49.4136C29.7474 49.399 24.5393 49.4036 19.3311 49.4048C18.3129 49.4052 17.9957 49.6329 17.6843 50.5699C16.6382 50.5734 15.5918 50.5768 14.5458 50.5803C14.244 49.7247 13.8505 49.3882 13.1756 49.409C12.5366 49.4287 12.1585 49.7867 11.9504 50.5683C10.9075 50.6258 9.86415 50.6381 8.8216 50.5603Z" fill="#E5EBEB"/>
    <path d="M16.3595 34.3604C14.4988 34.3604 12.6985 34.3547 10.8986 34.3658C10.5648 34.3678 10.4923 34.1916 10.3983 33.9191C9.52688 31.3989 8.65699 28.8775 7.74471 26.3715C6.54337 23.072 5.46112 19.7304 4.19927 16.4521C4.00309 15.9422 3.88785 15.3983 3.66392 14.8915C3.51939 14.5639 3.69244 14.399 4.02506 14.4105C5.65845 14.4668 7.04865 13.7992 8.34249 12.9097C8.74217 12.6349 8.79382 12.853 8.88709 13.1198C10.2229 16.9354 11.5453 20.756 12.8908 24.5682C14.0127 27.7467 15.1605 30.9156 16.296 34.0891C16.3168 34.1465 16.3245 34.2086 16.3595 34.3604Z" fill="#CA8545"/>
    <path d="M36.333 27.5311C35.307 27.1157 34.2961 26.7164 33.2944 26.294C33.0107 26.1745 33.2227 25.9598 33.2824 25.8095C34.2105 23.4742 35.1474 21.1421 36.0825 18.8095C37.1123 16.2404 38.1456 13.6727 39.1697 11.1012C39.3496 10.6495 39.4845 10.3863 40.0758 10.7224C40.7977 11.1328 41.6032 11.4211 42.4033 11.6597C42.8936 11.8058 42.7575 12.01 42.638 12.3056C41.9439 14.0261 41.2575 15.7497 40.566 17.471C39.2764 20.6823 37.9864 23.8936 36.6907 27.1022C36.6209 27.2768 36.6336 27.5539 36.333 27.5311Z" fill="#CE3E45"/>
    <path d="M29.8418 34.3639C30.5953 32.4927 31.3206 30.6986 32.0367 28.9014C32.1146 28.7056 32.1813 28.6328 32.4075 28.7214C33.3622 29.0945 34.3234 29.4499 35.2538 29.8842C35.534 30.0153 35.4766 30.1579 35.396 30.3579C34.91 31.5646 34.4279 32.7733 33.9411 33.98C33.8632 34.1735 33.8104 34.3735 33.5144 34.3701C32.3196 34.3554 31.1237 34.3639 29.8418 34.3639Z" fill="#CD3E45"/>
    <path d="M3.81162 6.98267C5.00333 8.07262 6.10292 9.08511 7.21176 10.0864C7.4091 10.2645 7.39098 10.3759 7.2002 10.5389C6.11178 11.4697 4.86573 11.9353 3.42543 11.8748C3.13097 11.8624 3.07085 11.746 3.11324 11.4786C3.34526 10.0259 3.56611 8.57097 3.81162 6.98267Z" fill="#E5EBEB"/>
    <path d="M8.82165 50.5601C9.86458 50.6379 10.9075 50.6256 11.9508 50.5678C11.9562 50.6603 11.9616 50.7528 11.9666 50.8453C11.3669 50.4961 10.7144 50.7069 10.0885 50.6872C8.92186 50.6506 8.92109 50.6768 8.92109 51.8601C8.92109 55.1538 8.92186 58.448 8.91916 61.7418C8.91877 61.9753 8.89141 62.2085 8.87638 62.4421C8.85402 62.318 8.81201 62.1935 8.81201 62.0694C8.8124 58.2329 8.81741 54.3965 8.82165 50.5601Z" fill="#9EB3B4"/>
    <path d="M8.8851 36.9568C8.8851 38.7255 8.8851 40.4941 8.8851 42.2632C8.76331 42.1761 8.766 42.0443 8.766 41.9159C8.76485 40.3515 8.76485 38.7875 8.766 37.2231C8.76562 37.119 8.7583 37.0065 8.8851 36.9568Z" fill="#008997"/>
    <path d="M14.5459 50.5797C15.5919 50.5763 16.6383 50.5728 17.6843 50.5693C17.7025 50.7069 17.7206 50.8449 17.7387 50.9825C17.5915 50.7994 17.4369 50.6846 17.1644 50.6942C16.2961 50.7254 15.4266 50.7158 14.5571 50.722C14.5532 50.6746 14.5498 50.6271 14.5459 50.5797Z" fill="#B4E1E6"/>
    <path d="M14.5457 50.5799C14.5495 50.6273 14.553 50.6747 14.5569 50.7221C14.2054 51.8371 13.5035 52.2507 12.6552 51.8333C12.249 51.6332 12.0043 51.308 11.9665 50.8451C11.9611 50.7526 11.9561 50.6601 11.9507 50.568C12.1588 49.7863 12.5369 49.4283 13.1759 49.4086C13.8504 49.3878 14.2435 49.7243 14.5457 50.5799Z" fill="#020808"/>
</svg>
