<svg width="25" height="28" viewBox="0 0 25 28" fill="none" xmlns="http://www.w3.org/2000/svg">
    <path d="M13.4224 21.2553C13.4224 19.4359 13.416 17.6167 13.426 15.7973C13.4294 15.1797 13.7301 14.6901 14.2777 14.3817C15.8121 13.5182 17.3593 12.6758 18.901 11.8241C20.4759 10.9542 22.0501 10.0834 23.6246 9.2129C23.7543 9.14115 23.889 9.07555 24.0116 8.99365C24.1844 8.87805 24.374 8.85612 24.5743 8.87098C24.679 8.87859 24.8189 9.00271 24.8505 9.1223C24.8838 9.24805 24.909 9.37453 24.909 9.50698C24.9071 13.1166 24.9115 16.7263 24.9039 20.3359C24.9026 20.9862 24.5938 21.4927 24.0035 21.8203C22.4371 22.6898 20.8676 23.5541 19.2993 24.4208C17.9867 25.1461 16.6744 25.8717 15.3619 26.5974C14.9877 26.8043 14.614 27.0116 14.2397 27.2185C14.1465 27.2701 14.0445 27.2997 13.9398 27.3189C13.6475 27.3723 13.4386 27.1147 13.4262 26.8499C13.4179 26.672 13.4224 26.4937 13.4224 26.3154C13.4224 24.6286 13.4224 22.9421 13.4224 21.2553ZM17.2226 23.0212C18.1604 23.0247 18.924 22.2865 18.946 21.3993C18.9695 20.4488 18.1781 19.6974 17.2322 19.6894C16.2541 19.681 15.4915 20.4529 15.486 21.3463C15.4804 22.2736 16.2791 23.0325 17.2226 23.0212Z" fill="#0E7071"/>
    <path d="M11.5126 21.2118C11.5126 23.0022 11.5122 24.7924 11.5133 26.5829C11.5133 26.6997 11.4975 26.8124 11.4635 26.925C11.3821 27.1942 11.0891 27.3017 10.8376 27.2196C10.5715 27.1328 10.3445 26.9715 10.1021 26.8407C9.51931 26.5265 8.94196 26.2025 8.36235 25.8827C7.66747 25.4993 6.97277 25.1157 6.27751 24.7328C5.65672 24.3909 5.03499 24.0506 4.4142 23.7087C3.76727 23.3523 3.12128 22.9944 2.47453 22.6378C1.97222 22.361 1.46671 22.0893 0.967224 21.8079C0.3517 21.4613 0.00980514 20.9329 0.00736035 20.2529C-0.00467557 16.6764 0.00171856 13.0998 0.0015305 9.52329C0.0015305 9.43613 0.00491537 9.35025 0.0259782 9.26454C0.121513 8.8775 0.355273 8.8052 0.725189 8.90033C0.977944 8.96538 1.1882 9.13172 1.41537 9.25584C2.42545 9.80795 3.43289 10.3646 4.44071 10.9203C5.67214 11.5993 6.90243 12.2798 8.13405 12.9584C8.94516 13.4053 9.76303 13.8409 10.5677 14.2984C11.165 14.638 11.5007 15.1609 11.5069 15.8282C11.5235 17.6226 11.5126 19.4172 11.5126 21.2118ZM7.66051 18.6694C8.61116 18.6805 9.37224 17.9256 9.39669 17.0602C9.42415 16.087 8.6153 15.3426 7.68721 15.3381C6.72528 15.3336 5.93824 16.0783 5.93787 16.9854C5.9373 17.9196 6.70441 18.6694 7.66051 18.6694Z" fill="#CB8545"/>
    <path d="M12.4597 12.8263C12.0753 12.8501 11.7424 12.7062 11.4176 12.5219C10.8231 12.1845 10.2229 11.8568 9.62463 11.5253C8.94122 11.1466 8.25743 10.7679 7.57382 10.3896C6.91599 10.0256 6.25777 9.6619 5.60012 9.29788C4.69724 8.79795 3.79455 8.29767 2.89185 7.79774C2.51667 7.58991 2.1381 7.38733 1.76706 7.17297C1.61492 7.08509 1.48497 6.96967 1.47105 6.77688C1.45431 6.54784 1.59837 6.41412 1.77665 6.31301C2.34046 5.9932 2.90859 5.68081 3.47597 5.36698C5.02616 4.50919 6.57672 3.65231 8.12691 2.79488C9.29515 2.14873 10.4621 1.50058 11.6322 0.857514C11.9692 0.67233 12.3321 0.645874 12.7182 0.681027C13.1575 0.72089 13.4883 0.964783 13.8466 1.15866C14.5862 1.55875 15.3195 1.96989 16.0548 2.37722C16.8311 2.8072 17.6063 3.23899 18.3828 3.66861C19.0516 4.03844 19.7224 4.40518 20.3911 4.77501C21.0525 5.14066 21.7125 5.50867 22.3733 5.87524C22.637 6.02146 22.9048 6.16099 23.1643 6.31337C23.316 6.40252 23.4483 6.51468 23.4625 6.70748C23.4793 6.93253 23.3495 7.07513 23.1679 7.17714C22.469 7.56907 21.7666 7.95502 21.0655 8.34297C19.9193 8.97716 18.7729 9.61135 17.6264 10.2454C16.4985 10.869 15.3703 11.4922 14.2423 12.1157C13.9196 12.294 13.6001 12.4779 13.274 12.6504C13.0231 12.7825 12.7511 12.8445 12.4597 12.8263ZM12.4826 9.46857C14.0454 9.45498 15.2452 8.26723 15.2781 6.84682C15.3148 5.25753 14.0192 4.0966 12.5166 4.07504C10.9136 4.05203 9.67992 5.26877 9.65528 6.73158C9.62971 8.2511 10.9196 9.47781 12.4826 9.46857Z" fill="#CF3D45"/>
</svg>
