<svg width="332" height="356" viewBox="0 0 332 356" fill="none" xmlns="http://www.w3.org/2000/svg">
    <path d="M178.901 274.401C178.901 250.151 178.816 225.903 178.949 201.654C178.994 193.423 183.002 186.897 190.301 182.787C210.752 171.277 231.374 160.049 251.923 148.698C272.913 137.103 293.895 125.496 314.88 113.894C316.61 112.938 318.404 112.064 320.039 110.972C322.342 109.431 324.869 109.139 327.538 109.337C328.934 109.438 330.799 111.093 331.22 112.687C331.664 114.363 332 116.049 332 117.814C331.975 165.925 332.033 214.036 331.932 262.147C331.915 270.814 327.799 277.565 319.931 281.931C299.054 293.521 278.134 305.041 257.232 316.592C239.736 326.26 222.245 335.93 204.752 345.602C199.764 348.36 194.783 351.123 189.795 353.881C188.552 354.57 187.193 354.963 185.797 355.219C181.902 355.932 179.117 352.497 178.952 348.969C178.841 346.597 178.901 344.221 178.901 341.844C178.901 319.362 178.901 296.883 178.901 274.401ZM229.552 297.938C242.052 297.984 252.228 288.145 252.522 276.321C252.835 263.651 242.287 253.636 229.679 253.53C216.643 253.419 206.479 263.707 206.406 275.613C206.331 287.974 216.976 298.088 229.552 297.938Z" fill="#0E7071"/>
    <path d="M153.445 273.821C153.445 297.685 153.44 321.546 153.455 345.409C153.455 346.967 153.244 348.469 152.791 349.969C151.705 353.558 147.8 354.99 144.449 353.896C140.902 352.739 137.876 350.59 134.646 348.846C126.878 344.658 119.183 340.34 111.457 336.077C102.196 330.967 92.9363 325.854 83.6695 320.751C75.3953 316.194 67.1086 311.658 58.8344 307.101C50.2119 302.351 41.6018 297.581 32.9817 292.828C26.2867 289.138 19.549 285.517 12.8916 281.767C4.68762 277.147 0.130687 270.104 0.0981021 261.041C-0.0623181 213.372 0.0229057 165.7 0.0203992 118.031C0.0203992 116.87 0.0655143 115.725 0.34625 114.583C1.61958 109.424 4.73524 108.46 9.66566 109.728C13.0345 110.595 15.8368 112.812 18.8648 114.467C32.3275 121.825 45.7552 129.245 59.1879 136.652C75.6009 145.701 91.9988 154.772 108.414 163.817C119.225 169.772 130.126 175.578 140.852 181.676C148.813 186.202 153.287 193.172 153.37 202.067C153.59 225.983 153.445 249.902 153.445 273.821ZM102.103 239.935C114.773 240.082 124.918 230.021 125.243 218.487C125.609 205.515 114.829 195.594 102.459 195.534C89.6376 195.473 79.1476 205.399 79.1426 217.489C79.1351 229.942 89.3594 239.935 102.103 239.935Z" fill="#CB8545"/>
    <path d="M166.068 162.056C160.944 162.372 156.507 160.455 152.179 157.999C144.255 153.502 136.254 149.133 128.281 144.716C119.172 139.668 110.058 134.62 100.947 129.578C92.179 124.726 83.406 119.879 74.6406 115.027C62.6065 108.364 50.575 101.696 38.5435 95.0324C33.5429 92.2623 28.4972 89.5622 23.5517 86.7052C21.5239 85.5339 19.7919 83.9955 19.6064 81.4258C19.3833 78.3732 21.3034 76.5908 23.6796 75.2432C31.1943 70.9806 38.7666 66.817 46.3289 62.634C66.9905 51.201 87.6571 39.7801 108.319 28.3519C123.89 19.7397 139.443 11.101 155.039 2.52985C159.53 0.0616333 164.368 -0.290974 169.514 0.177552C175.369 0.708871 179.778 3.95958 184.553 6.54372C194.412 11.8762 204.185 17.3561 213.986 22.7852C224.333 28.5162 234.665 34.2713 245.014 39.9975C253.928 44.9267 262.869 49.8148 271.782 54.744C280.597 59.6176 289.393 64.5227 298.201 69.4084C301.715 71.3573 305.285 73.217 308.744 75.248C310.767 76.4363 312.529 77.9312 312.719 80.5009C312.942 83.5004 311.213 85.4011 308.791 86.7607C299.477 91.9846 290.115 97.1287 280.77 102.299C265.493 110.752 250.213 119.205 234.933 127.655C219.898 135.968 204.862 144.274 189.827 152.584C185.526 154.96 181.267 157.412 176.921 159.711C173.577 161.471 169.953 162.297 166.068 162.056ZM166.373 117.302C187.203 117.121 203.195 101.29 203.633 82.3581C204.122 61.1753 186.854 45.7019 166.827 45.4145C145.461 45.1078 129.018 61.3251 128.69 80.8221C128.349 101.075 145.541 117.425 166.373 117.302Z" fill="#CF3D45"/>
</svg>
