<svg width="84" height="84" viewBox="0 0 84 84" fill="none" xmlns="http://www.w3.org/2000/svg">
    <path d="M75.5952 27.782C75.2314 28.3944 75.0934 29.1147 74.6583 29.6967C73.541 31.191 72.0405 31.8832 70.1928 31.882C65.9671 31.8793 61.7414 31.8924 57.5161 31.867C56.9792 31.8639 56.8355 31.9946 56.8628 32.5261C56.911 33.4626 56.879 34.4034 56.8759 35.3423C56.869 37.5484 55.6256 38.7964 53.4264 38.7968C45.2741 38.7987 37.1218 38.801 28.9691 38.7875C28.527 38.7868 28.2202 38.9086 27.9126 39.2231C26.5402 40.6268 25.1419 42.0058 23.7548 43.3952C23.3651 43.7856 22.9481 44.0805 22.3472 43.9471C21.6874 43.8007 21.3355 43.3551 21.3224 42.535C21.3051 41.4469 21.3062 40.3581 21.3247 39.2697C21.3301 38.9363 21.2831 38.796 20.8892 38.786C17.8213 38.7066 16.9294 37.7762 16.9294 34.7083C16.9294 28.4553 16.929 22.2023 16.9298 15.9493C16.9302 13.611 18.1338 12.4108 20.4787 12.4108C27.2867 12.41 34.0947 12.4058 40.9023 12.4208C41.3756 12.422 41.5244 12.3318 41.5448 11.8153C41.6589 8.91968 43.7922 6.79834 46.6909 6.78678C54.6085 6.75479 62.5261 6.75942 70.4437 6.78601C72.8476 6.79411 74.6583 8.22631 75.3832 10.508C75.4349 10.6706 75.3736 10.9053 75.5952 11.0017C75.5952 16.5956 75.5952 22.1888 75.5952 27.782ZM58.5702 29.319C62.4972 29.319 66.4242 29.3194 70.3512 29.319C71.9935 29.319 73.0322 28.2938 73.0326 26.6724C73.033 21.7637 72.9944 16.8543 73.0584 11.9464C73.0754 10.6533 71.7195 9.29931 70.399 9.31088C63.8046 9.36946 57.2097 9.33786 50.6144 9.33786C49.3337 9.33786 48.0534 9.33015 46.7726 9.33978C45.0849 9.3525 44.0847 10.3608 44.0843 12.0327C44.0839 16.9414 44.0832 21.8504 44.0847 26.7591C44.0851 28.2541 45.1569 29.3182 46.6601 29.3186C50.631 29.3198 54.6008 29.319 58.5702 29.319ZM23.9771 39.5403C24.8825 38.6291 25.7204 37.8167 26.5213 36.9688C27.0239 36.4365 27.59 36.2218 28.3297 36.2238C36.6762 36.2426 45.0232 36.2361 53.3698 36.2357C54.2042 36.2357 54.3252 36.1193 54.3302 35.2818C54.336 34.3425 54.3037 33.4021 54.3434 32.4644C54.363 31.995 54.2505 31.8612 53.7598 31.8678C51.4335 31.8978 49.1063 31.8805 46.7796 31.8816C45.9193 31.882 45.1026 31.7125 44.3379 31.3024C42.3885 30.2571 41.5182 28.5971 41.5213 26.423C41.5267 22.7727 41.5178 19.1224 41.5302 15.4721C41.5313 15.1087 41.4851 14.9615 41.0588 14.9626C34.1425 14.9784 27.2258 14.9765 20.3095 14.9684C19.7595 14.9676 19.4863 15.1561 19.487 15.7408C19.4944 22.3156 19.4944 28.8904 19.487 35.4656C19.4863 36.048 19.753 36.2561 20.3061 36.2415C21.0526 36.2218 21.8003 36.2245 22.5473 36.2411C23.2992 36.2577 23.6865 36.6308 23.8554 37.3673C24.0103 38.0418 23.8604 38.7243 23.9771 39.5403Z" fill="#010101"/>
    <path d="M18.9791 72.3577C18.2699 71.7992 18.1832 71.0438 18.199 70.199C18.2383 68.1297 18.192 66.0588 18.2256 63.9895C18.2341 63.4727 18.0768 63.3763 17.5946 63.376C14.0153 63.374 11.1108 61.181 10.2606 57.8741C9.08079 53.2861 12.4339 48.8037 17.1799 48.6808C19.4404 48.6222 21.7036 48.6627 23.9656 48.6688C24.3132 48.67 24.6331 48.6118 24.9561 48.4815C31.956 45.6572 38.9583 42.839 45.9602 40.0197C46.0981 39.9642 46.233 39.9002 46.3726 39.8478C47.4772 39.4316 48.3035 39.985 48.3077 41.1652C48.3166 43.6407 48.3625 46.1174 48.2873 48.5906C48.2522 49.7492 48.3944 50.4657 49.6748 50.9864C51.7988 51.8497 52.9613 54.1926 52.7747 56.467C52.5835 58.8007 51.0399 60.784 48.8211 61.4674C48.3752 61.6046 48.2989 61.815 48.3016 62.2286C48.3185 65.0452 48.2927 67.8622 48.3216 70.6788C48.3301 71.4963 48.0699 72.0671 47.2871 72.3577C47.0308 72.3577 46.7896 72.3427 46.5198 72.3041C46.25 72.15 46.1401 72.1045 45.9374 72.0224C41.3255 70.1604 36.7094 68.3085 32.0948 66.4539C30.0875 65.6472 28.0811 64.839 26.0156 64.0077C26.0156 66.2708 25.9994 68.4638 26.0241 70.6565C26.033 71.4628 25.7639 72.0444 24.9997 72.3573C22.9924 72.3577 20.9855 72.3577 18.9791 72.3577ZM40.1138 58.1609C40.1134 54.0604 40.1153 49.9604 40.1072 45.8599C40.1068 45.6453 40.224 45.3878 39.975 45.2167C39.9126 45.2259 39.8451 45.2236 39.7881 45.2463C35.3323 47.0374 30.8788 48.8346 26.4191 50.616C26.0364 50.769 26.0079 51.0203 26.0091 51.3606C26.0168 54.474 26.0226 57.5874 26.0033 60.7004C26.0006 61.1313 26.1312 61.3244 26.5359 61.4847C29.7792 62.7678 33.0059 64.0932 36.2496 65.3759C37.9408 66.0446 39.5985 66.8015 41.3321 67.3623C42.7859 67.9655 44.2397 68.5691 45.7224 69.1842C45.7224 60.3628 45.7224 51.6497 45.7224 42.878C44.8374 43.2349 44.0046 43.6052 43.147 43.9028C42.6822 44.0639 42.5631 44.309 42.565 44.7838C42.5851 49.0273 42.5781 53.2711 42.5754 57.5149C42.5747 58.5787 42.35 58.8781 41.3641 59.1765C40.7146 59.1244 40.2344 58.8635 40.1138 58.1609ZM23.4615 56.0191C23.4615 54.5912 23.4514 53.1632 23.4684 51.7352C23.4726 51.3718 23.4121 51.208 22.9886 51.213C21.0919 51.2365 19.1945 51.1949 17.2983 51.2303C14.6377 51.2804 12.5484 53.4576 12.575 56.0981C12.6008 58.6897 14.736 60.8025 17.3761 60.8257C19.2304 60.8418 21.0846 60.8164 22.9388 60.8384C23.3601 60.8434 23.478 60.7193 23.4711 60.3026C23.4468 58.8751 23.4615 57.4471 23.4615 56.0191ZM23.4615 66.6227C23.4615 65.7058 23.4399 64.7881 23.4715 63.8724C23.4854 63.4634 23.3454 63.3605 22.9627 63.381C22.41 63.4106 21.8527 63.4137 21.3004 63.3802C20.8865 63.3551 20.7535 63.4812 20.7632 63.9075C20.7909 65.1651 20.7682 66.4235 20.7751 67.6815C20.779 68.3602 20.5381 69.2956 20.8846 69.6517C21.3166 70.0965 22.2524 69.7373 22.9666 69.8001C23.3551 69.8344 23.4857 69.713 23.4719 69.3087C23.4403 68.4145 23.4615 67.5184 23.4615 66.6227ZM48.3108 55.9667C48.3108 56.8193 48.3166 57.6714 48.3077 58.5239C48.3046 58.8234 48.3467 59.0034 48.6831 58.7791C49.6921 58.1069 50.2579 57.1923 50.2337 55.9528C50.2105 54.7665 49.6393 53.8997 48.6723 53.2611C48.4033 53.0834 48.3043 53.1578 48.3077 53.4735C48.3174 54.3048 48.3112 55.1358 48.3108 55.9667Z" fill="#010101"/>
    <path d="M61.4446 54.7905C62.5754 54.7905 63.7059 54.7817 64.8367 54.7932C65.7162 54.8025 66.2454 55.26 66.2758 56.0027C66.3074 56.7735 65.7786 57.3358 64.8979 57.3451C62.5515 57.3694 60.2043 57.3705 57.8583 57.3428C57.0274 57.3331 56.4862 56.7538 56.504 56.03C56.5221 55.292 57.064 54.8048 57.9246 54.7944C59.0978 54.7801 60.271 54.7905 61.4446 54.7905Z" fill="#040404"/>
    <path d="M58.2531 66.9776C57.8453 66.9614 57.5208 66.7691 57.2417 66.492C56.4559 65.7115 55.6638 64.9364 54.8934 64.1413C54.2864 63.5146 54.2586 62.7311 54.7897 62.2131C55.315 61.7005 56.0612 61.7217 56.6725 62.3114C57.5 63.11 58.3078 63.9297 59.1129 64.7511C59.5199 65.1665 59.6541 65.6761 59.4174 66.2149C59.2039 66.6997 58.7892 66.9491 58.2531 66.9776Z" fill="#030303"/>
    <path d="M55.6318 50.0725C55.1712 50.0393 54.7931 49.8316 54.5623 49.4003C54.3341 48.974 54.3037 48.5061 54.6108 48.1384C55.4853 47.0913 56.4473 46.1204 57.4991 45.2517C57.9566 44.874 58.6704 44.9973 59.0747 45.4097C59.4748 45.8175 59.6016 46.4727 59.2362 46.9321C58.3733 48.0167 57.3635 48.9675 56.3148 49.8732C56.1317 50.0312 55.892 50.0655 55.6318 50.0725Z" fill="#030303"/>
    <path d="M58.5702 29.319C54.6005 29.319 50.6307 29.3198 46.6609 29.3186C45.1574 29.3182 44.0859 28.2541 44.0855 26.7591C44.084 21.8504 44.0847 16.9413 44.0851 12.0327C44.0851 10.3607 45.0857 9.35249 46.7734 9.33978C48.0538 9.33014 49.3345 9.33785 50.6152 9.33785C57.2101 9.33785 63.8054 9.36984 70.3998 9.31087C71.7203 9.29892 73.0762 10.6533 73.0592 11.9463C72.9952 16.8542 73.0338 21.7637 73.0334 26.6723C73.0334 28.2942 71.9943 29.319 70.352 29.319C66.4247 29.319 62.4973 29.319 58.5702 29.319ZM53.0307 24.4358C53.4192 25.7736 53.9456 25.9979 55.152 25.3338C55.5578 25.1103 55.9594 24.8794 56.3603 24.6474C58.7206 23.2815 61.0863 21.9252 63.4369 20.5431C64.6479 19.8312 64.6417 18.8168 63.4184 18.1015C60.6677 16.4935 57.9077 14.9021 55.1408 13.3219C54.0975 12.726 53.3698 13.054 53.0307 14.2203C52.8626 14.3745 52.9258 14.5784 52.9258 14.7622C52.922 17.8058 52.922 20.8499 52.9258 23.8935C52.9258 24.0773 52.8622 24.2812 53.0307 24.4358Z" fill="#0E7071"/>
    <path d="M23.9772 39.5402C23.8604 38.7239 24.0103 38.0413 23.8554 37.3661C23.6862 36.6299 23.2992 36.2565 22.5473 36.2399C21.8003 36.2233 21.0526 36.2206 20.3061 36.2403C19.753 36.2549 19.4863 36.0468 19.4871 35.4644C19.4948 28.8896 19.4944 22.3148 19.4871 15.7396C19.4863 15.1549 19.7599 14.9668 20.3095 14.9672C27.2258 14.9749 34.1425 14.9768 41.0588 14.9614C41.4851 14.9603 41.5314 15.1075 41.5302 15.471C41.5179 19.1212 41.5267 22.7715 41.5213 26.4218C41.5183 28.5959 42.3881 30.2559 44.338 31.3012C45.1026 31.7113 45.9193 31.8808 46.7796 31.8805C49.1063 31.8793 51.4335 31.897 53.7599 31.8666C54.2505 31.8604 54.363 31.9942 54.3434 32.4632C54.3037 33.4009 54.3361 34.3413 54.3303 35.2806C54.3249 36.1181 54.2039 36.2345 53.3698 36.2345C45.0232 36.2349 36.6763 36.2418 28.3297 36.2226C27.5897 36.221 27.0239 36.4353 26.5213 36.9676C25.7204 37.8166 24.8825 38.6295 23.9772 39.5402ZM31.1498 20.2243C29.082 20.2243 27.0146 20.2228 24.9469 20.2266C24.6956 20.227 24.4462 20.2108 24.1999 20.3307C23.606 20.6193 23.3254 21.1366 23.4607 21.759C23.6076 22.4343 24.0654 22.7842 24.8521 22.785C28.966 22.7892 33.0799 22.7881 37.1935 22.7862C38.1424 22.7858 38.7725 22.2805 38.788 21.5212C38.8038 20.7542 38.1443 20.2262 37.1603 20.2255C35.1569 20.2231 33.1532 20.2243 31.1498 20.2243ZM28.5975 29.9599C29.8991 29.9599 31.2003 29.9665 32.5014 29.9576C33.3705 29.9514 33.951 29.4385 33.961 28.695C33.971 27.9523 33.3863 27.4038 32.5334 27.4008C29.9519 27.3919 27.3708 27.3923 24.7892 27.4008C24.0068 27.4035 23.3944 27.97 23.379 28.6626C23.3632 29.3668 24.0011 29.9514 24.8212 29.9572C26.08 29.9669 27.3388 29.9599 28.5975 29.9599ZM38.7907 28.6788C38.7907 28.0155 38.1486 27.3919 37.4733 27.3996C36.825 27.4069 36.2122 28.0005 36.186 28.6468C36.1594 29.2955 36.8019 29.9499 37.4733 29.958C38.1486 29.9657 38.7907 29.3421 38.7907 28.6788Z" fill="#FEFEFE"/>
    <path d="M41.3316 67.3627C39.598 66.8019 37.9404 66.0453 36.2492 65.3763C33.0055 64.0936 29.7788 62.7681 26.5355 61.4851C26.1304 61.3248 26.0002 61.1317 26.0028 60.7008C26.0221 57.5878 26.0163 54.4744 26.0086 51.361C26.0079 51.0203 26.036 50.769 26.4187 50.6163C30.8784 48.835 35.3319 47.0378 39.7877 45.2467C39.8447 45.2236 39.9122 45.2263 39.9746 45.217C39.9781 49.2655 39.9804 53.3139 39.9889 57.3623C39.9892 57.6313 39.9091 57.9208 40.1133 58.1613C40.2344 58.8643 40.7142 59.1248 41.364 59.1768C41.3752 60.0633 41.386 60.9501 41.3968 61.8366C40.2875 61.9376 40.0825 62.533 40.059 63.1767C40.0351 63.828 40.6456 64.442 41.3536 64.4193C41.3467 65.4002 41.3393 66.3814 41.3316 67.3627Z" fill="#CB8545"/>
    <path d="M23.4615 56.019C23.4615 57.447 23.4464 58.8753 23.4707 60.3029C23.4776 60.7196 23.3597 60.8437 22.9384 60.8387C21.0846 60.8167 19.23 60.8421 17.3757 60.8259C14.7356 60.8028 12.6004 58.69 12.5746 56.0984C12.548 53.4579 14.6373 51.2807 17.2979 51.2306C19.1941 51.1948 21.0915 51.2368 22.9882 51.2133C23.4121 51.2079 23.4722 51.3721 23.468 51.7355C23.4518 53.1627 23.4615 54.5911 23.4615 56.019Z" fill="#CF3D45"/>
    <path d="M41.3317 67.3628C41.339 66.3815 41.3463 65.4002 41.354 64.419C42.2212 64.1388 42.5665 63.7649 42.5642 63.1093C42.5619 62.4591 42.2058 62.0706 41.3972 61.8363C41.3864 60.9495 41.3756 60.063 41.3644 59.1765C42.3499 58.8786 42.5746 58.5791 42.5754 57.5154C42.5781 53.2716 42.5847 49.0277 42.565 44.7843C42.5627 44.3095 42.6818 44.0647 43.147 43.9032C44.0049 43.6057 44.8374 43.2353 45.7223 42.8784C45.7223 51.6501 45.7223 60.3632 45.7223 69.1847C44.2396 68.5691 42.7855 67.966 41.3317 67.3628Z" fill="#FCFCFC"/>
    <path d="M23.4614 66.6228C23.4614 67.5185 23.4402 68.4146 23.4711 69.3091C23.4849 69.7134 23.3547 69.8348 22.9658 69.8005C22.2516 69.7377 21.3158 70.0965 20.8838 69.6521C20.5377 69.296 20.7782 68.3602 20.7743 67.6819C20.7674 66.4239 20.7901 65.1651 20.7624 63.9079C20.7527 63.4816 20.8861 63.356 21.2996 63.3806C21.8519 63.4138 22.4092 63.4111 22.9619 63.3814C23.3446 63.361 23.4849 63.4635 23.4707 63.8728C23.4398 64.7882 23.4614 65.7059 23.4614 66.6228Z" fill="#CB8545"/>
    <path d="M48.3112 55.9668C48.3112 55.1358 48.3178 54.3045 48.3081 53.4735C48.3047 53.1579 48.4037 53.0835 48.6727 53.2612C49.6394 53.8998 50.2109 54.7666 50.2341 55.9529C50.2583 57.1924 49.6926 58.107 48.6835 58.7792C48.3467 59.0035 48.3051 58.8235 48.3081 58.524C48.3166 57.6719 48.3108 56.8193 48.3112 55.9668Z" fill="#CF3D45"/>
    <path d="M40.1138 58.161C39.9095 57.9205 39.9897 57.6311 39.9893 57.3621C39.9808 53.3136 39.9785 49.2652 39.975 45.2168C40.224 45.3875 40.1069 45.6454 40.1072 45.8601C40.1149 49.9605 40.1134 54.0606 40.1138 58.161Z" fill="#364850"/>
    <path d="M53.0306 14.2206C53.3698 13.0543 54.0975 12.7263 55.1408 13.3222C57.9073 14.9024 60.6677 16.4938 63.4184 18.1017C64.6417 18.8167 64.6479 19.8315 63.4369 20.5433C61.0862 21.9251 58.7205 23.2817 56.3603 24.6476C55.9594 24.8797 55.5578 25.1109 55.152 25.3341C53.9456 25.9981 53.4191 25.7738 53.0306 24.4361C53.0306 21.0305 53.0306 17.6254 53.0306 14.2206ZM55.6114 22.1663C57.2802 21.202 58.8543 20.2928 60.5255 19.3274C58.8443 18.3576 57.2567 17.4419 55.6114 16.4926C55.6114 18.4139 55.6114 20.24 55.6114 22.1663Z" fill="#010101"/>
    <path d="M53.0307 14.2207C53.0307 17.6259 53.0307 21.0306 53.0307 24.4358C52.8622 24.2816 52.9258 24.0777 52.9258 23.8939C52.922 20.8503 52.922 17.8062 52.9258 14.7626C52.9258 14.5788 52.8622 14.3749 53.0307 14.2207Z" fill="#53939F"/>
    <path d="M31.1498 20.2244C33.1535 20.2244 35.1569 20.2228 37.1607 20.2252C38.1451 20.2263 38.8041 20.7539 38.7883 21.5209C38.7729 22.2806 38.1428 22.7855 37.1939 22.7859C33.0799 22.7878 28.966 22.7889 24.8524 22.7847C24.0658 22.7839 23.6075 22.434 23.4611 21.7587C23.3258 21.1367 23.6064 20.6194 24.2003 20.3304C24.4466 20.2105 24.6959 20.2271 24.9472 20.2263C27.0146 20.2228 29.082 20.2244 31.1498 20.2244Z" fill="#010101"/>
    <path d="M28.5975 29.9601C27.3387 29.9601 26.0799 29.967 24.8215 29.9577C24.0018 29.9516 23.3635 29.3673 23.3793 28.6631C23.3947 27.9705 24.0072 27.404 24.7896 27.4013C27.3711 27.3928 29.9522 27.3924 32.5337 27.4013C33.3863 27.404 33.971 27.9524 33.9613 28.6955C33.9513 29.439 33.3705 29.9524 32.5017 29.9581C31.2002 29.9666 29.8986 29.9601 28.5975 29.9601Z" fill="#010101"/>
    <path d="M38.7906 28.6788C38.7906 29.3421 38.1481 29.9657 37.4729 29.9576C36.8019 29.9499 36.1594 29.2955 36.1856 28.6464C36.2118 28.0001 36.8246 27.4069 37.4729 27.3992C38.1489 27.3919 38.791 28.0155 38.7906 28.6788Z" fill="#070A04"/>
    <path d="M41.3972 61.8362C42.2062 62.0705 42.5619 62.459 42.5642 63.1092C42.5665 63.7648 42.2212 64.1387 41.354 64.4189C40.6456 64.4416 40.0351 63.8276 40.059 63.1763C40.0829 62.5326 40.288 61.9372 41.3972 61.8362Z" fill="#040404"/>
    <path d="M55.6113 22.1664C55.6113 20.2401 55.6113 18.4144 55.6113 16.4927C57.2571 17.442 58.8446 18.3577 60.5254 19.3274C58.8542 20.2929 57.2802 21.2021 55.6113 22.1664Z" fill="#CF3D45"/>
</svg>
