<svg width="60" height="60" viewBox="0 0 60 60" fill="none" xmlns="http://www.w3.org/2000/svg">
    <path d="M0.791646 23.8354C1.00864 23.6169 0.977031 23.3113 1.06182 23.0476C1.83304 20.6515 4.0488 19.0081 6.57868 18.9734C7.42621 18.9618 8.2749 18.9476 9.12127 18.9803C9.51825 18.9958 9.59688 18.8574 9.58801 18.4951C9.57414 17.9201 9.54446 17.3435 9.66355 16.7684C10.1029 14.6413 12.0019 13.2357 14.1922 13.4338C16.2206 13.6173 17.8456 15.399 17.9049 17.4907C17.9184 17.9671 17.6968 18.6019 17.9913 18.8782C18.3092 19.1769 18.9425 18.9622 19.4373 18.9657C20.9782 18.9773 22.5195 18.9599 24.0608 18.9776C24.3923 18.9815 24.5726 18.8794 24.7411 18.5891C25.9393 16.5291 27.1715 14.4891 28.3632 12.4252C28.7081 11.8278 29.1371 11.5557 29.8447 11.5584C34.9881 11.5792 40.1319 11.5792 45.2753 11.5584C45.9829 11.5557 46.413 11.827 46.758 12.424C47.9404 14.4706 49.1657 16.4925 50.3512 18.5375C50.5412 18.8647 50.7397 18.9761 51.117 18.9815C52.4818 19.0012 53.8543 18.8427 55.2113 19.0775C57.8549 19.5346 59.8849 21.8717 59.9805 24.555C60.0024 25.1709 59.9909 25.7876 59.9909 26.4042C59.9913 35.3235 59.9943 44.2429 59.9893 53.1622C59.9878 56.0617 58.2137 58.3449 55.4746 59.0425C55.2472 59.1003 54.9731 58.9966 54.7881 59.2163C54.634 59.2163 54.4798 59.2163 54.3256 59.2163C54.1591 59.014 53.9302 59.1053 53.7313 59.1049C38.1131 59.1003 22.4952 59.1003 6.87699 59.1037C6.69546 59.1037 6.48656 59.0224 6.34126 59.2159C6.14855 59.2159 5.95584 59.2159 5.76313 59.2159C5.62901 59.0112 5.39044 59.0614 5.2039 59.0089C3.15194 58.4324 1.79489 57.1285 1.07377 55.1351C0.980115 54.8765 1.02212 54.5674 0.79126 54.3597C0.791645 44.1854 0.791646 34.0104 0.791646 23.8354ZM30.3878 56.9038C38.2106 56.9038 46.0334 56.9057 53.8566 56.9026C56.1575 56.9019 57.6791 55.3787 57.6791 53.0924C57.6791 43.6894 57.6799 34.2868 57.6784 24.8838C57.678 22.8773 56.1167 21.2882 54.1241 21.2874C38.305 21.2836 22.4856 21.284 6.66655 21.2874C4.67202 21.2878 3.10569 22.8746 3.1053 24.8757C3.10376 34.3365 3.1053 43.7969 3.1026 53.2578C3.1026 53.6644 3.17159 54.0533 3.29955 54.4371C3.8164 55.9873 5.14762 56.9022 6.91938 56.9026C14.7418 56.9053 22.565 56.9038 30.3878 56.9038ZM47.9562 18.9692C46.9688 17.3053 46.0199 15.7174 45.0853 14.121C44.9508 13.8909 44.7715 13.882 44.5538 13.882C39.8949 13.884 35.2363 13.8859 30.5774 13.8778C30.2934 13.8774 30.1273 13.9599 29.9835 14.2127C29.5584 14.9601 29.0982 15.6873 28.6611 16.4281C28.1728 17.2564 27.6945 18.0904 27.1846 18.9692C34.1313 18.9692 40.9837 18.9692 47.9562 18.9692ZM13.7147 18.9788C13.8492 18.9788 13.9833 18.9788 14.1178 18.9788C15.7142 18.9788 15.7142 18.9788 15.5913 17.3778C15.5254 16.521 14.7433 15.7683 13.8835 15.7344C12.8999 15.6954 11.9988 16.3722 11.9051 17.2679C11.8554 17.7424 11.9024 18.2265 11.8905 18.7059C11.8843 18.9557 12.0223 18.9827 12.2185 18.9803C12.7168 18.9749 13.2156 18.9784 13.7147 18.9788Z" fill="#010101"/>
    <path d="M6.34167 59.2166C6.48659 59.0227 6.69587 59.1044 6.8774 59.1044C22.4956 59.101 38.1135 59.101 53.7317 59.1056C53.931 59.1056 54.1599 59.0146 54.3261 59.217C38.3313 59.2166 22.3365 59.2166 6.34167 59.2166Z" fill="#222222"/>
    <path d="M33.2009 7.21646C33.2083 7.82427 32.992 8.19504 32.55 8.39815C32.0643 8.62092 31.6022 8.53266 31.2211 8.15881C30.4784 7.43076 29.7484 6.6896 29.0126 5.95384C28.3724 5.31366 27.7261 4.67965 27.0936 4.03177C26.5502 3.47523 26.5267 2.7649 27.0162 2.29161C27.4914 1.83181 28.1751 1.85185 28.7139 2.38373C30.0848 3.73692 31.4415 5.10438 32.8028 6.46722C33.0406 6.7054 33.2171 6.97558 33.2009 7.21646Z" fill="#060606"/>
    <path d="M41.9187 7.25925C41.9095 6.99601 42.0698 6.71966 42.3099 6.47955C43.6855 5.104 45.0549 3.72151 46.4404 2.35598C46.9669 1.83721 47.6753 1.84183 48.1363 2.32052C48.5803 2.78186 48.5779 3.46944 48.0781 3.97742C46.7002 5.37803 45.3065 6.76283 43.9132 8.1484C43.5348 8.52457 43.073 8.6217 42.5859 8.40471C42.1442 8.20814 41.9183 7.84084 41.9187 7.25925Z" fill="#060606"/>
    <path d="M36.4042 4.28313C36.4042 3.30108 36.3984 2.31866 36.4061 1.33661C36.4119 0.566937 36.9006 0.0277391 37.5681 0.0327495C38.2395 0.0377599 38.7132 0.570406 38.7155 1.3501C38.7209 3.2953 38.7205 5.24011 38.7159 7.18531C38.714 7.98313 38.2665 8.49689 37.5836 8.51038C36.8786 8.52425 36.4103 7.99777 36.4061 7.17221C36.4003 6.20905 36.4042 5.2459 36.4042 4.28313Z" fill="#010101"/>
    <path d="M30.3877 56.9037C22.5649 56.9037 14.7421 56.9049 6.91896 56.903C5.14758 56.9026 3.81597 55.9876 3.29912 54.4374C3.17116 54.0532 3.10179 53.6647 3.10217 53.2581C3.10487 43.7972 3.10333 34.3368 3.10487 24.876C3.10526 22.8749 4.67159 21.2881 6.66612 21.2878C22.4852 21.2843 38.3046 21.2843 54.1236 21.2878C56.1162 21.2881 57.6776 22.8772 57.6779 24.8841C57.6795 34.2871 57.6787 43.6897 57.6787 53.0927C57.6787 55.379 56.1571 56.9022 53.8562 56.903C46.0334 56.9057 38.2105 56.9037 30.3877 56.9037ZM25.7512 32.8826C24.8177 32.6055 24.3833 32.8294 24.0133 33.7406C22.9361 36.3934 22.7114 39.1352 23.2599 41.9241C24.7954 49.73 32.3804 54.8745 40.254 53.4034C47.824 51.9893 52.9423 44.8857 52.0239 37.3955C51.6381 34.2493 50.4001 31.5082 48.2603 29.2031C44.0847 24.7052 37.8991 23.3309 32.1657 25.5601C31.3154 25.8908 31.095 26.3363 31.3482 27.2112C30.562 27.7531 29.7757 28.2946 28.9895 28.8365C28.7621 28.6716 28.5516 28.4846 28.2468 28.4584C27.748 28.4153 27.3387 28.5675 27.0813 29.0019C26.7521 29.5569 26.9279 30.0556 27.3121 30.5123C26.7922 31.302 26.2715 32.0921 25.7512 32.8826ZM13.7709 28.4596C12.77 28.4596 11.769 28.4554 10.7681 28.4611C10.0855 28.465 9.61186 28.8974 9.5818 29.5257C9.55097 30.167 10.0196 30.7447 10.6806 30.7528C12.7206 30.7783 14.7614 30.7779 16.8014 30.7528C17.4597 30.7447 17.9315 30.1651 17.9014 29.5276C17.8717 28.8997 17.3969 28.4654 16.7159 28.4611C15.7346 28.4554 14.7525 28.4596 13.7709 28.4596Z" fill="#FEFEFE"/>
    <path d="M47.9563 18.969C40.9837 18.969 34.1314 18.969 27.1854 18.969C27.6953 18.0907 28.1732 17.2562 28.662 16.428C29.099 15.6872 29.5592 14.9599 29.9843 14.2126C30.1281 13.9602 30.2942 13.8773 30.5782 13.8777C35.2368 13.8858 39.8957 13.8839 44.5546 13.8819C44.772 13.8819 44.9516 13.8908 45.0861 14.1209C46.0196 15.7177 46.9685 17.3056 47.9563 18.969Z" fill="#CB8445"/>
    <path d="M13.7147 18.9787C13.2156 18.9783 12.7169 18.9748 12.2181 18.9802C12.022 18.9825 11.884 18.9555 11.8902 18.7058C11.9025 18.2263 11.8555 17.7423 11.9048 17.2678C11.9985 16.3721 12.8996 15.6957 13.8831 15.7342C14.743 15.7682 15.525 16.5209 15.5909 17.3777C15.7139 18.9787 15.7139 18.9787 14.1175 18.9787C13.9833 18.9787 13.8492 18.9787 13.7147 18.9787Z" fill="#CE3D45"/>
    <path d="M28.9895 28.8362C29.7757 28.2943 30.562 27.7528 31.3482 27.2109C31.8774 27.8838 32.2825 27.9813 33.2121 27.6048C35.0355 26.8659 36.9499 26.6605 38.8693 26.874C42.0428 27.227 44.7276 28.6142 46.8254 31.0616C49.3129 33.9637 50.2803 37.3365 49.6667 41.0812C48.5952 47.6206 42.4991 52.0702 36.1185 51.2524C32.5453 50.7941 29.6821 49.1253 27.6097 46.2146C25.0814 42.6634 24.6204 38.778 26.1154 34.6845C26.3791 33.963 26.3559 33.386 25.7512 32.8827C26.2715 32.0922 26.7918 31.3021 27.3125 30.512C27.6367 30.6025 27.9227 30.8145 28.3015 30.7101C29.1309 30.4807 29.3761 29.8413 28.9895 28.8362ZM37.565 29.6162C32.439 29.6282 28.0972 33.7159 28.0984 39.0805C28.0996 44.323 32.2285 48.536 37.5527 48.5394C42.861 48.5429 47.0027 44.3889 47.0197 39.0867C47.037 33.7768 42.7573 29.6347 37.565 29.6162Z" fill="#0F6F70"/>
    <path d="M25.7512 32.8825C26.3559 33.3862 26.3791 33.9632 26.1154 34.6843C24.6204 38.7778 25.0814 42.6632 27.6097 46.2144C29.6821 49.1251 32.5454 50.7939 36.1186 51.2522C42.4991 52.07 48.5949 47.6208 49.6667 41.081C50.2803 37.3363 49.3133 33.9636 46.8254 31.0614C44.7276 28.614 42.0428 27.2269 38.8693 26.8738C36.9499 26.6603 35.0359 26.8657 33.2121 27.6046C32.2825 27.9811 31.877 27.8836 31.3483 27.2107C31.095 26.3362 31.3155 25.8906 32.1657 25.5599C37.8992 23.3307 44.0847 24.7051 48.2603 29.2029C50.4002 31.5081 51.6385 34.2491 52.0239 37.3953C52.9424 44.8855 47.824 51.9887 40.2541 53.4032C32.38 54.8743 24.7954 49.7298 23.2599 41.924C22.7115 39.1355 22.9361 36.3936 24.0134 33.7404C24.3834 32.8293 24.8181 32.6053 25.7512 32.8825Z" fill="#020203"/>
    <path d="M13.771 28.4594C14.7526 28.4594 15.7343 28.4548 16.7163 28.461C17.3973 28.4652 17.8722 28.8996 17.9019 29.5274C17.9319 30.1653 17.4602 30.7446 16.8019 30.7527C14.7619 30.7777 12.7211 30.7777 10.6811 30.7527C10.0201 30.7446 9.55141 30.1668 9.58225 29.5255C9.61231 28.8969 10.086 28.4648 10.7686 28.461C11.7691 28.4552 12.77 28.4594 13.771 28.4594Z" fill="#030203"/>
    <path d="M28.9895 28.8362C29.3757 29.841 29.131 30.4808 28.3015 30.7097C27.9227 30.8145 27.6363 30.6022 27.3126 30.5116C26.9279 30.0549 26.7526 29.5562 27.0817 29.0012C27.3392 28.5668 27.7485 28.4146 28.2472 28.4577C28.5521 28.4843 28.7621 28.6716 28.9895 28.8362Z" fill="#050406"/>
    <path d="M37.565 29.6162C42.7573 29.6347 47.037 33.7768 47.0196 39.0867C47.0023 44.3888 42.861 48.5425 37.5527 48.5394C32.2289 48.5359 28.0995 44.3229 28.0984 39.0805C28.0976 33.7159 32.439 29.6278 37.565 29.6162ZM44.7287 39.0813C44.7291 35.1331 41.5147 31.921 37.5627 31.9202C33.6122 31.9195 30.3928 35.1327 30.392 39.0774C30.3912 43.0141 33.6253 46.2523 37.5588 46.2531C41.4947 46.2535 44.7283 43.0195 44.7287 39.0813Z" fill="#010202"/>
    <path d="M44.7288 39.0812C44.7284 43.0194 41.4948 46.2534 37.5589 46.253C33.6253 46.2523 30.3913 43.0144 30.3921 39.0774C30.3929 35.1326 33.6122 31.9194 37.5628 31.9202C41.5152 31.9209 44.7296 35.1334 44.7288 39.0812ZM42.1161 38.944C42.0721 36.5552 40.0479 34.5344 37.6738 34.5094C36.9843 34.5021 36.452 34.9576 36.4092 35.5924C36.3668 36.2183 36.8016 36.7174 37.4656 36.8057C39.0324 37.0131 39.5889 37.5634 39.8267 39.139C39.9331 39.8428 40.4468 40.2957 41.0693 40.234C41.7168 40.1696 42.1296 39.6613 42.1161 38.944Z" fill="#C9F1F8"/>
    <path d="M42.116 38.944C42.1291 39.6612 41.7167 40.1696 41.0692 40.234C40.4468 40.2956 39.933 39.8431 39.8266 39.139C39.5888 37.5634 39.0319 37.013 37.4656 36.8057C36.8011 36.7178 36.3664 36.2187 36.4091 35.5924C36.4523 34.9576 36.9842 34.502 37.6737 34.5094C40.0479 34.5344 42.0721 36.5552 42.116 38.944Z" fill="#030404"/>
</svg>
