<svg width="66" height="61" viewBox="0 0 66 61" fill="none" xmlns="http://www.w3.org/2000/svg">
    <path d="M0.105957 59.5152C0.105957 40.1707 0.105957 20.8263 0.105957 1.48224C0.435488 0.924932 0.941541 0.767682 1.56283 0.768067C22.5083 0.774619 43.4538 0.773077 64.3992 0.775004C65.5092 0.775004 65.843 1.12188 65.843 2.24421C65.8438 15.9581 65.8438 29.6724 65.843 43.3863C65.843 44.346 65.6858 44.5626 64.782 44.8786C64.2216 44.7549 63.7999 44.494 63.7672 43.8499C63.7733 43.7863 63.7845 43.7224 63.7845 43.6588C63.7857 33.0186 63.7864 22.378 63.783 11.7378C63.783 11.5809 63.8631 11.3898 63.6685 11.2757C62.651 11.2726 61.6331 11.2691 60.6156 11.266C60.4661 11.2603 60.3169 11.2495 60.1674 11.2495C41.0599 11.2487 21.9525 11.2514 2.8455 11.2364C2.29628 11.236 2.19183 11.4044 2.19222 11.917C2.20571 27.0658 2.20725 42.215 2.18836 57.3638C2.18759 57.972 2.31555 58.1292 2.94185 58.1285C22.0065 58.1092 41.0711 58.1127 60.1354 58.1115C60.3697 58.1115 60.6044 58.0926 60.8388 58.0826C61.7765 58.0853 62.7146 58.0884 63.6523 58.0911C63.862 58.0248 63.7826 57.8463 63.7826 57.7157C63.7822 54.4558 63.7756 51.1964 63.7702 47.9365C63.8331 47.3048 64.2354 47.0208 64.8136 46.9159C65.6491 47.1753 65.8415 47.4239 65.8422 48.2953C65.8449 51.761 65.8438 55.2267 65.843 58.6927C65.8426 59.9006 65.5285 60.2228 64.331 60.2228C43.4295 60.224 22.528 60.2224 1.62681 60.2298C0.986635 60.2305 0.449363 60.1018 0.105957 59.5152ZM21.6211 9.18402C27.8868 9.18402 34.1521 9.17863 40.4178 9.19405C40.9119 9.1952 41.0811 9.07881 41.0704 8.55734C41.0364 6.89003 41.036 5.22117 41.0704 3.55386C41.0815 3.0189 40.9285 2.87707 40.3943 2.87784C27.8633 2.89287 15.3322 2.8921 2.80118 2.87977C2.31131 2.87938 2.13826 2.98884 2.14944 3.51262C2.18451 5.15835 2.18798 6.806 2.14867 8.45173C2.1344 9.03757 2.29551 9.19944 2.88905 9.19751C9.1328 9.17554 15.3769 9.18402 21.6211 9.18402ZM53.5174 2.89017C53.5174 2.8894 53.5174 2.88902 53.5174 2.88824C50.2452 2.88824 46.973 2.89981 43.7012 2.87591C43.2094 2.87244 43.0992 3.01428 43.1069 3.4841C43.1354 5.21578 43.1281 6.94861 43.1104 8.68067C43.1065 9.05761 43.1855 9.19443 43.5995 9.19366C50.165 9.18017 56.7306 9.18056 63.2962 9.19289C63.6989 9.19366 63.7995 9.07225 63.7953 8.68452C63.776 6.97366 63.7656 5.26241 63.7999 3.55232C63.8103 3.02892 63.6881 2.87206 63.1412 2.87668C59.9334 2.90443 56.7252 2.89017 53.5174 2.89017Z" fill="#040404"/>
    <path d="M60.8388 58.0826C60.6044 58.0926 60.3697 58.1115 60.1354 58.1115C41.0707 58.113 22.0061 58.1092 2.94185 58.1284C2.31555 58.1292 2.18759 57.9716 2.18836 57.3638C2.20724 42.215 2.2057 27.0658 2.19221 11.917C2.19183 11.4044 2.29628 11.2359 2.84549 11.2363C21.9529 11.2514 41.0603 11.2487 60.1674 11.2494C60.3169 11.2494 60.4661 11.2602 60.6148 11.266C60.6884 11.3061 60.7632 11.3466 60.8376 11.387C60.8341 11.6433 60.8276 11.9 60.8276 12.1563C60.8272 26.2252 60.8268 40.2937 60.8276 54.3625C60.8276 55.6024 60.8349 56.8423 60.8388 58.0826ZM12.4547 34.7001C12.6833 34.5556 12.842 34.4492 13.0062 34.3517C16.2237 32.4362 19.4431 30.5234 22.6594 28.6055C23.5971 28.0463 23.8584 27.4955 23.4926 26.8954C23.1045 26.2587 22.5549 26.2236 21.5999 26.7914C17.7781 29.0638 13.9571 31.3381 10.1383 33.6155C9.04955 34.265 9.04608 35.1102 10.1299 35.7581C12.9238 37.4285 15.7207 39.0931 18.5173 40.7585C19.6874 41.4549 20.8525 42.1598 22.0346 42.8355C22.6143 43.1669 23.1855 43.0155 23.4803 42.5156C23.7759 42.0145 23.6314 41.4202 23.1219 41.0583C23.0182 40.9847 22.9033 40.9265 22.7935 40.861C20.4536 39.4681 18.1134 38.0756 15.7739 36.6823C14.6805 36.031 13.5882 35.3773 12.4547 34.7001ZM53.4912 34.6812C53.2214 34.8554 53.0306 34.988 52.8313 35.1067C49.5761 37.0423 46.3182 38.9728 43.0653 40.9123C42.328 41.352 42.1191 41.9795 42.4841 42.5507C42.8159 43.0698 43.4241 43.1423 44.1178 42.7291C47.9932 40.4216 51.8686 38.1134 55.7405 35.8001C56.9414 35.0824 56.9272 34.2796 55.7216 33.5647C54.2211 32.6747 52.7261 31.7763 51.2268 30.8849C48.8311 29.4608 46.438 28.0316 44.0338 26.6214C43.3266 26.2067 42.7616 26.3389 42.4343 26.9282C42.1445 27.4504 42.3549 28.0239 42.9967 28.4263C43.3929 28.6749 43.7976 28.9108 44.1999 29.1501C47.2702 30.9781 50.3412 32.8062 53.4912 34.6812ZM38.8839 27.4431C38.8889 26.9078 38.6214 26.5886 38.1851 26.4418C37.6159 26.2498 37.1973 26.5166 36.8839 26.9833C33.717 31.7008 30.5489 36.4175 27.3857 41.1377C26.9086 41.85 26.9622 42.442 27.5083 42.8228C28.0363 43.1908 28.6565 43.0112 29.1197 42.3225C32.2778 37.625 35.4313 32.9245 38.5817 28.222C38.7455 27.9781 38.9247 27.7272 38.8839 27.4431Z" fill="#FDFEFE"/>
    <path d="M21.6211 9.18398C15.377 9.18398 9.13283 9.1755 2.8887 9.19785C2.29516 9.19978 2.13405 9.03829 2.14831 8.45207C2.18801 6.80634 2.18416 5.15869 2.14908 3.51296C2.13791 2.98918 2.31135 2.87933 2.80082 2.8801C15.3319 2.89244 27.8629 2.89321 40.394 2.87818C40.9278 2.87741 41.0808 3.01924 41.07 3.5542C41.0357 5.22151 41.0361 6.89037 41.07 8.55768C41.0804 9.07915 40.9112 9.19554 40.4175 9.19438C34.1522 9.17858 27.8868 9.18398 21.6211 9.18398Z" fill="#0E7071"/>
    <path d="M60.8388 58.0826C60.8349 56.8427 60.8276 55.6028 60.8276 54.3625C60.8268 40.2937 60.8272 26.2252 60.8276 12.1563C60.8276 11.9 60.8341 11.6433 60.8376 11.3867C61.7746 11.3813 62.7111 11.3762 63.6481 11.3708C63.6519 11.6487 63.6596 11.9266 63.6596 12.2041C63.6604 22.5086 63.6592 32.8131 63.6654 43.1176C63.6654 43.3604 63.5602 43.6306 63.7676 43.8495C63.8007 44.4936 64.2223 44.7545 64.7824 44.8782C64.7928 45.5577 64.8032 46.2368 64.814 46.9159C64.2358 47.0207 63.8335 47.3048 63.7706 47.9365C63.576 48.1338 63.665 48.3828 63.6646 48.6067C63.6558 51.7679 63.6554 54.9295 63.6527 58.0911C62.7146 58.0884 61.7765 58.0853 60.8388 58.0826Z" fill="#CF3D45"/>
    <path d="M53.5174 2.89021C56.7252 2.89021 59.9335 2.90447 63.1413 2.87634C63.6882 2.87171 63.8104 3.02819 63.8 3.55197C63.7657 5.26206 63.7761 6.9737 63.7953 8.68418C63.7996 9.07229 63.699 9.19331 63.2962 9.19254C56.7306 9.18021 50.1651 9.17982 43.5995 9.19331C43.1859 9.19409 43.1065 9.05726 43.1104 8.68032C43.1281 6.94826 43.1355 5.21543 43.1069 3.48375C43.0992 3.01354 43.2095 2.87171 43.7012 2.87556C46.973 2.89907 50.2452 2.8879 53.5174 2.8879C53.5174 2.88905 53.5174 2.88944 53.5174 2.89021ZM53.4423 4.94795C52.8761 4.95797 52.338 5.51181 52.3639 6.05756C52.3893 6.58674 52.9304 7.11862 53.4531 7.12787C54.0046 7.1375 54.5476 6.58404 54.5449 6.01517C54.5415 5.417 54.0462 4.93754 53.4423 4.94795ZM58.1382 6.02866C58.1359 6.61333 58.6323 7.12671 59.2012 7.12787C59.7554 7.12902 60.3058 6.58212 60.31 6.02596C60.3142 5.48098 59.7643 4.95065 59.1927 4.94833C58.5637 4.94564 58.1409 5.37885 58.1382 6.02866ZM48.7795 6.0356C48.7818 5.38231 48.354 4.94294 47.7219 4.94872C47.138 4.95373 46.6797 5.40197 46.6609 5.98742C46.6416 6.5721 47.1342 7.10975 47.705 7.12787C48.2958 7.14637 48.7772 6.65689 48.7795 6.0356Z" fill="#CB8445"/>
    <path d="M63.7672 43.85C63.5602 43.6311 63.6655 43.3613 63.6651 43.1181C63.6589 32.8136 63.6597 22.5091 63.6593 12.2046C63.6593 11.9267 63.652 11.6488 63.6477 11.3713C63.6605 11.3409 63.6674 11.3089 63.6682 11.2761C63.8628 11.3906 63.7826 11.5818 63.7826 11.7382C63.7861 22.3784 63.7853 33.019 63.7842 43.6592C63.7846 43.7224 63.7734 43.7864 63.7672 43.85Z" fill="#69A0A3"/>
    <path d="M63.6523 58.0911C63.6546 54.9295 63.6554 51.7683 63.6642 48.6068C63.665 48.3828 63.576 48.1342 63.7702 47.9365C63.7756 51.196 63.7822 54.4558 63.7826 57.7157C63.7826 57.8464 63.862 58.0248 63.6523 58.0911Z" fill="#69A0A3"/>
    <path d="M63.6685 11.2756C63.6678 11.3088 63.6608 11.3404 63.6481 11.3708C62.7111 11.3759 61.7746 11.3812 60.8376 11.3866C60.7633 11.3466 60.6885 11.3061 60.6149 11.2656C61.6331 11.2691 62.6506 11.2726 63.6685 11.2756Z" fill="#AD757A"/>
    <path d="M12.4547 34.7002C13.5882 35.3774 14.6804 36.031 15.7739 36.6824C18.1133 38.076 20.4536 39.4682 22.7935 40.8611C22.9033 40.9262 23.0182 40.9844 23.1218 41.0584C23.6317 41.4203 23.7759 42.0146 23.4803 42.5157C23.1854 43.0155 22.6142 43.167 22.0346 42.8356C20.8525 42.1599 19.687 41.455 18.5173 40.7585C15.7203 39.0932 12.9237 37.4285 10.1298 35.7581C9.04603 35.1103 9.0495 34.265 10.1383 33.6156C13.957 31.3382 17.778 29.0638 21.5998 26.7914C22.5549 26.2233 23.1045 26.2588 23.4926 26.8955C23.8584 27.4956 23.5967 28.0467 22.6593 28.6056C19.443 30.5234 16.2236 32.4362 13.0062 34.3518C12.842 34.4493 12.6828 34.5556 12.4547 34.7002Z" fill="#030404"/>
    <path d="M53.4912 34.6813C50.3411 32.8063 47.2702 30.9783 44.1995 29.1498C43.7975 28.9105 43.3929 28.675 42.9963 28.426C42.3545 28.0233 42.1441 27.4501 42.4339 26.9279C42.7612 26.3386 43.3262 26.2064 44.0334 26.6211C46.4373 28.0314 48.8303 29.4605 51.2264 30.8846C52.7257 31.7761 54.2208 32.6745 55.7212 33.5644C56.9268 34.2793 56.941 35.0822 55.7401 35.7998C51.8682 38.1135 47.9932 40.4213 44.1174 42.7288C43.4237 43.142 42.8155 43.0695 42.4837 42.5504C42.1187 41.9788 42.3276 41.3517 43.0649 40.912C46.3178 38.9726 49.5757 37.042 52.8309 35.1064C53.0306 34.9885 53.2218 34.8559 53.4912 34.6813Z" fill="#030404"/>
    <path d="M38.8838 27.4431C38.9247 27.7271 38.7455 27.978 38.582 28.222C35.4313 32.9245 32.2782 37.625 29.1201 42.3225C28.6572 43.0112 28.0367 43.1908 27.5086 42.8227C26.9625 42.4419 26.9089 41.8496 27.3861 41.1377C30.5492 36.4175 33.7173 31.7008 36.8843 26.9833C37.1976 26.5165 37.6162 26.2498 38.1855 26.4418C38.6214 26.5886 38.8888 26.9077 38.8838 27.4431Z" fill="#040404"/>
    <path d="M53.4422 4.94793C54.0462 4.93714 54.5414 5.41698 54.5445 6.01515C54.5476 6.58403 54.0042 7.13748 53.4526 7.12785C52.93 7.1186 52.3889 6.58672 52.3634 6.05755C52.3376 5.51218 52.876 4.95795 53.4422 4.94793Z" fill="#020303"/>
    <path d="M58.1382 6.02857C58.1405 5.37915 58.5637 4.94594 59.1927 4.94825C59.7643 4.95056 60.3139 5.4809 60.31 6.02588C60.3058 6.58203 59.7554 7.12894 59.2012 7.12778C58.6323 7.12663 58.1363 6.61325 58.1382 6.02857Z" fill="#020202"/>
    <path d="M48.7795 6.03555C48.7771 6.65723 48.2958 7.14632 47.7049 7.12744C47.1341 7.10932 46.6416 6.57167 46.6608 5.98699C46.6801 5.40154 47.138 4.9533 47.7219 4.94829C48.354 4.9429 48.7814 5.38227 48.7795 6.03555Z" fill="#010202"/>
</svg>
