<svg width="64" height="60" viewBox="0 0 64 60" fill="none" xmlns="http://www.w3.org/2000/svg">
    <path d="M63.9008 49.6348C63.1747 50.9186 62.674 52.3061 62.062 53.6424C61.3335 55.2326 60.6363 56.8371 59.9414 58.442C59.6916 59.0189 59.3355 59.4356 58.6626 59.4213C58.0201 59.4074 57.6879 58.9935 57.4462 58.442C56.2156 55.6334 54.9734 52.8299 53.7277 50.0283C53.5654 49.6629 53.4818 49.2979 53.4818 48.8952C53.4872 35.2457 53.4853 21.5957 53.4876 7.9462C53.488 5.82063 54.4041 4.18299 56.2772 3.19247C58.103 2.227 59.9437 2.36537 61.6638 3.52162C62.6713 4.1988 63.3346 5.15232 63.6903 6.32244C63.7447 6.50127 63.6769 6.74486 63.9012 6.86164C63.9008 21.1194 63.9008 35.3771 63.9008 49.6348ZM61.421 29.8544C61.421 23.988 61.4156 18.1216 61.4318 12.2555C61.433 11.7961 61.3235 11.6605 60.8537 11.6713C59.45 11.704 58.044 11.7067 56.6403 11.6709C56.1173 11.6574 55.9465 11.7645 55.9508 12.3349C55.9801 16.3213 55.9662 20.3081 55.9662 24.2948C55.9662 31.9997 55.9704 39.7042 55.9558 47.409C55.955 47.8889 56.068 48.0392 56.5648 48.0265C57.9476 47.9906 59.3332 47.9891 60.7161 48.0265C61.2626 48.0411 61.4387 47.917 61.436 47.3296C61.411 41.5044 61.421 35.6796 61.421 29.8544ZM58.6765 9.21731C59.0892 9.21731 59.502 9.21731 59.9148 9.21731C61.433 9.21731 61.4418 9.21731 61.4183 7.72651C61.3994 6.55292 60.802 5.72813 59.7552 5.26833C58.7192 4.81315 57.7495 5.01357 56.8796 5.74008C55.8267 6.61921 55.9431 7.81709 55.9708 8.99261C55.9778 9.294 56.2194 9.2123 56.3859 9.21384C57.1491 9.22116 57.9129 9.21692 58.6765 9.21731ZM58.6957 55.1574C59.3906 53.5872 60.0262 52.1631 60.6498 50.7336C60.7835 50.4268 60.5777 50.3987 60.3368 50.3998C59.2419 50.4052 58.1465 50.4099 57.0515 50.3983C56.6673 50.3941 56.6334 50.5274 56.7918 50.8408C56.9548 51.1634 57.07 51.5099 57.2169 51.8413C57.6852 52.8989 58.1588 53.9542 58.6957 55.1574Z" fill="#010101"/>
    <path d="M48.0313 33.5356C48.0313 41.6139 48.0317 49.6922 48.0309 57.7709C48.0309 59.0459 47.6451 59.429 46.3628 59.429C33.8422 59.4294 21.3219 59.4294 8.80127 59.429C7.49278 59.429 7.11777 59.0494 7.11738 57.7251C7.117 56.2169 7.10312 54.7084 7.12702 53.2007C7.13319 52.8176 7.03645 52.7185 6.6518 52.7243C5.06119 52.7482 3.47019 52.7382 1.87919 52.7328C0.895989 52.7293 0.423854 52.2691 0.423854 51.2994C0.421541 34.9774 0.421541 18.655 0.423854 2.333C0.423854 1.37177 0.902541 0.912349 1.89036 0.911579C6.27062 0.908495 10.6505 0.909267 15.0308 0.911194C15.9781 0.911579 16.5489 1.39374 16.5358 2.16919C16.5231 2.91883 15.9608 3.38827 15.0535 3.38865C11.1901 3.39096 7.32628 3.39867 3.46286 3.37825C3.00422 3.37593 2.88975 3.47923 2.89013 3.94635C2.9044 19.1942 2.90401 34.4421 2.89129 49.6895C2.89091 50.1393 2.9784 50.2673 3.45439 50.2669C15.0658 50.2511 26.6773 50.2518 38.2887 50.265C38.7331 50.2653 38.8696 50.1863 38.8688 49.7049C38.8534 34.4571 38.853 19.2092 38.8699 3.96177C38.8707 3.4403 38.6942 3.3794 38.2486 3.38094C34.3852 3.39636 30.5214 3.39135 26.658 3.38865C25.9165 3.38827 25.4447 3.07492 25.267 2.49063C25.0265 1.69976 25.6259 0.929693 26.525 0.915433C27.6613 0.897704 28.7978 0.910422 29.9341 0.910422C33.219 0.910422 36.5043 0.909267 39.7892 0.911194C40.9015 0.911965 41.3331 1.33939 41.3354 2.4413C41.3385 3.97025 41.3617 5.49958 41.322 7.02776C41.3089 7.5392 41.4796 7.624 41.9382 7.6159C43.4668 7.58854 44.9958 7.6028 46.5247 7.60665C47.5823 7.60897 48.0297 8.05566 48.0301 9.11479C48.0321 17.2548 48.0313 25.3952 48.0313 33.5356ZM45.5515 33.5822C45.5515 26.0003 45.5419 18.418 45.5685 10.8361C45.5708 10.1835 45.3812 10.0363 44.7761 10.0722C43.9116 10.1234 43.0413 10.0803 42.1737 10.0864C41.2268 10.0934 41.3381 9.97234 41.3378 10.897C41.3355 24.2432 41.3301 37.5894 41.3451 50.9352C41.3466 52.2992 40.851 52.7494 39.514 52.7432C34.7626 52.7208 30.0108 52.7343 25.2589 52.7343C20.2593 52.7343 15.2597 52.7443 10.2601 52.7204C9.70045 52.7177 9.56016 52.8742 9.58444 53.4115C9.62837 54.3804 9.62915 55.3544 9.58405 56.3233C9.559 56.8617 9.75171 56.9608 10.2485 56.9604C21.7971 56.9469 33.3461 56.945 44.8948 56.9639C45.466 56.9646 45.5635 56.7881 45.5623 56.2667C45.5465 48.7052 45.5515 41.1437 45.5515 33.5822Z" fill="black"/>
    <path d="M20.8598 14.1764C16.8538 14.1764 12.8478 14.1764 8.84178 14.176C8.65601 14.176 8.46908 14.1857 8.28447 14.1691C7.6177 14.109 7.12745 13.5898 7.12128 12.9477C7.11473 12.3056 7.59997 11.773 8.26134 11.7044C8.40433 11.6893 8.55002 11.697 8.69455 11.697C16.8099 11.6967 24.9252 11.6967 33.0409 11.697C33.1855 11.697 33.3308 11.6901 33.4745 11.7032C34.1394 11.7637 34.6319 12.2836 34.6381 12.9246C34.6443 13.5652 34.1583 14.1005 33.4977 14.168C33.3134 14.1868 33.1261 14.1764 32.9403 14.1764C28.9131 14.1764 24.8867 14.1764 20.8598 14.1764Z" fill="#010101"/>
    <path d="M20.886 21.1193C16.8592 21.1193 12.8327 21.1193 8.80588 21.1189C8.62011 21.1189 8.43241 21.1301 8.24857 21.11C7.5895 21.038 7.1085 20.4965 7.12084 19.8547C7.13279 19.2373 7.60261 18.7228 8.23469 18.6499C8.41854 18.6287 8.60585 18.6399 8.79162 18.6399C16.8449 18.6395 24.8986 18.6395 32.9518 18.6403C33.158 18.6403 33.3673 18.6272 33.5704 18.6561C34.1698 18.7409 34.6188 19.25 34.6369 19.8413C34.6558 20.456 34.2056 21.0056 33.5839 21.1012C33.3816 21.1324 33.1719 21.1189 32.9657 21.1189C28.9393 21.1193 24.9124 21.1193 20.886 21.1193Z" fill="#010101"/>
    <path d="M20.8983 28.0624C16.8098 28.0624 12.7209 28.0577 8.63241 28.067C8.00186 28.0685 7.49042 27.909 7.22217 27.2892C6.89803 26.5392 7.39291 25.699 8.22232 25.5945C8.4054 25.5714 8.59348 25.583 8.77925 25.583C16.8533 25.5826 24.9274 25.5826 33.0015 25.5826C33.1461 25.5826 33.2914 25.5764 33.4351 25.5868C34.1347 25.6377 34.6442 26.1684 34.6372 26.8333C34.6307 27.5 34.1204 28.0365 33.412 28.0539C32.4215 28.0785 31.4298 28.062 30.4385 28.062C27.2584 28.0624 24.0784 28.0624 20.8983 28.0624Z" fill="#010101"/>
    <path d="M20.8791 32.5255C24.9884 32.5255 29.0977 32.5239 33.207 32.527C34.0145 32.5278 34.5436 32.9394 34.6311 33.6104C34.7194 34.288 34.2199 34.9151 33.5161 34.9956C33.3323 35.0168 33.145 35.0052 32.9592 35.0052C24.9059 35.0056 16.8522 35.0056 8.79897 35.0052C8.6132 35.0052 8.4255 35.0164 8.24204 34.9956C7.58413 34.9208 7.10506 34.3755 7.12125 33.7341C7.13666 33.1167 7.6088 32.6056 8.24204 32.5355C8.42588 32.5151 8.6132 32.5262 8.79897 32.5262C12.8258 32.5255 16.8522 32.5255 20.8791 32.5255Z" fill="#010101"/>
    <path d="M20.8726 41.948C16.8457 41.948 12.8193 41.9484 8.79246 41.9473C8.58627 41.9473 8.37621 41.9608 8.17426 41.9295C7.55258 41.834 7.10241 41.2851 7.12091 40.67C7.13864 40.0776 7.58611 39.5696 8.18659 39.4845C8.38932 39.4556 8.5986 39.4687 8.80518 39.4687C16.8585 39.4679 24.9121 39.4679 32.9654 39.4683C33.1512 39.4683 33.3389 39.4571 33.5223 39.4783C34.1537 39.5508 34.625 40.0661 34.6373 40.6827C34.6501 41.3233 34.1683 41.8663 33.51 41.9384C33.3262 41.9585 33.1388 41.9473 32.9527 41.9473C28.9262 41.948 24.8994 41.948 20.8726 41.948Z" fill="#010101"/>
    <path d="M22.1174 2.19976C22.0885 2.88619 21.4815 3.43271 20.7985 3.38646C20.1371 3.34175 19.6145 2.76054 19.6415 2.09994C19.6696 1.41313 20.2763 0.867376 20.96 0.913626C21.6214 0.95872 22.1452 1.54031 22.1174 2.19976Z" fill="#080808"/>
    <path d="M61.4211 29.8543C61.4211 35.6795 61.4115 41.5043 61.4361 47.3295C61.4384 47.9169 61.2627 48.041 60.7162 48.0263C59.3333 47.989 57.9481 47.9905 56.5649 48.0263C56.0681 48.0391 55.9551 47.8887 55.9559 47.4089C55.9709 39.704 55.9663 31.9996 55.9663 24.2947C55.9663 20.3079 55.9802 16.3212 55.9509 12.3348C55.9466 11.7644 56.1174 11.6573 56.6404 11.6708C58.0441 11.707 59.4497 11.7043 60.8538 11.6711C61.3236 11.6603 61.4331 11.796 61.4319 12.2554C61.4153 18.1219 61.4211 23.9879 61.4211 29.8543Z" fill="#CB8545"/>
    <path d="M58.6765 9.21701C57.913 9.21701 57.1491 9.22125 56.3856 9.21354C56.2191 9.212 55.9778 9.29371 55.9705 8.99231C55.9431 7.81679 55.8267 6.61853 56.8793 5.73978C57.7492 5.01366 58.7189 4.81286 59.7549 5.26803C60.8017 5.72784 61.3991 6.55263 61.418 7.72622C61.4419 9.21701 61.4326 9.21701 59.9144 9.21701C59.5021 9.2174 59.0893 9.2174 58.6765 9.21701Z" fill="#CE3D45"/>
    <path d="M58.6958 55.1574C58.1585 53.9545 57.6852 52.8989 57.2169 51.8413C57.0701 51.5098 56.9548 51.1633 56.7918 50.8407C56.6334 50.527 56.6673 50.3941 57.0516 50.3983C58.1466 50.4099 59.2419 50.4056 60.3369 50.3998C60.5778 50.3987 60.7836 50.4268 60.6498 50.7336C60.0262 52.1631 59.3907 53.5872 58.6958 55.1574Z" fill="#FBF9F9"/>
    <path d="M45.5516 33.5823C45.5516 41.1438 45.5466 48.7053 45.5627 56.2664C45.5639 56.7882 45.4664 56.9648 44.8952 56.9636C33.3466 56.9447 21.798 56.9463 10.2489 56.9601C9.75214 56.9609 9.55943 56.8615 9.58448 56.323C9.62958 55.3541 9.62881 54.3802 9.58487 53.4112C9.56059 52.874 9.70088 52.7175 10.2605 52.7202C15.2601 52.7441 20.2598 52.734 25.2594 52.734C30.0112 52.734 34.763 52.7202 39.5144 52.7429C40.8514 52.7491 41.3471 52.2989 41.3455 50.9349C41.3305 37.5887 41.3355 24.2429 41.3382 10.8967C41.3382 9.97206 41.2272 10.0931 42.1742 10.0861C43.0417 10.08 43.912 10.1231 44.7765 10.0719C45.3816 10.036 45.5712 10.1833 45.5689 10.8358C45.5419 18.4181 45.5516 26.0004 45.5516 33.5823Z" fill="#0E7071"/>
    <mask id="mask0_143_313" style="mask-type:luminance" maskUnits="userSpaceOnUse" x="0" y="2" width="39" height="49">
        <path d="M38.8306 2.10205H0.751465V50.0864H38.8306V2.10205Z" fill="white"/>
    </mask>
    <g mask="url(#mask0_143_313)">
        <path d="M63.9047 49.6282C63.9055 53.5737 63.9001 57.5192 63.9163 61.4647C63.9178 61.8243 63.8562 61.9134 63.4765 61.913C42.5712 61.9041 21.6658 61.9068 0.760769 61.9226C0.351842 61.923 0.296728 61.8039 0.296728 61.4378C0.302509 40.5532 0.299426 19.6686 0.287478 -1.21596C0.287092 -1.57941 0.338738 -1.70235 0.749978 -1.70197C21.6554 -1.69233 42.5607 -1.69542 63.4657 -1.71045C63.8427 -1.71083 63.9097 -1.62643 63.907 -1.26336C63.8889 1.44265 63.8978 4.14866 63.8982 6.85505C63.6739 6.73866 63.7417 6.49507 63.6874 6.31624C63.3316 5.14611 62.6683 4.19259 61.6604 3.51542C59.9399 2.35955 58.0992 2.22119 56.2739 3.18743C54.4011 4.17833 53.485 5.81597 53.485 7.94154C53.4846 21.5911 53.4888 35.241 53.4854 48.8905C53.4854 49.2933 53.5686 49.6583 53.7313 50.0236C54.9777 52.8252 56.2199 55.6284 57.4509 58.4369C57.6926 58.9884 58.0252 59.4024 58.6673 59.4162C59.3402 59.4305 59.6964 59.0135 59.9457 58.4365C60.6403 56.8313 61.3375 55.2268 62.0655 53.6365C62.6783 52.2995 63.179 50.912 63.9047 49.6282ZM48.0325 33.5313C48.0313 25.3909 48.031 17.2505 48.0279 9.11012C48.0275 8.05061 47.5796 7.6043 46.5221 7.60199C44.9931 7.59852 43.4638 7.58464 41.9356 7.61201C41.4773 7.6201 41.3062 7.53531 41.3193 7.02386C41.3586 5.49607 41.3351 3.96635 41.332 2.43741C41.3297 1.33589 40.8981 0.908073 39.7857 0.907687C36.5008 0.906146 33.2155 0.908072 29.9306 0.908458C28.7944 0.908843 27.6578 0.89574 26.5216 0.913854C25.6228 0.928115 25.0235 1.69818 25.264 2.48905C25.4417 3.07334 25.9138 3.38669 26.655 3.38707C30.5184 3.38938 34.3822 3.39362 38.2456 3.37782C38.6912 3.3759 38.8677 3.43718 38.8669 3.95826C38.8523 19.2061 38.855 34.454 38.8727 49.7014C38.8731 50.1828 38.737 50.2618 38.2926 50.2614C26.6812 50.2503 15.0697 50.2514 3.4583 50.2688C2.9827 50.2695 2.89482 50.1416 2.89521 49.6918C2.90561 34.4439 2.90369 19.1961 2.88711 3.94862C2.88673 3.4815 3.00081 3.37821 3.45946 3.38052C7.32287 3.40018 11.1867 3.39247 15.0501 3.38938C15.9574 3.38861 16.5201 2.91918 16.5324 2.16954C16.5451 1.39408 15.9747 0.911926 15.0274 0.911541C10.6471 0.910384 6.26722 0.910386 1.88696 0.913854C0.899134 0.914625 0.420832 1.37443 0.420832 2.33527C0.420832 18.6573 0.423144 34.9797 0.428155 51.3017C0.42854 52.2718 0.900676 52.7316 1.88387 52.735C3.47487 52.7401 5.06587 52.7497 6.65649 52.7258C7.04113 52.72 7.13787 52.8191 7.13171 53.2022C7.10781 54.7099 7.12207 56.2184 7.12246 57.7266C7.12284 59.0509 7.49785 59.4305 8.80634 59.4301C21.327 59.4286 33.8472 59.4267 46.3679 59.4243C47.6502 59.424 48.0356 59.0408 48.0356 57.7659C48.0352 49.6883 48.0337 41.61 48.0325 33.5313ZM20.8583 14.176C24.8852 14.1753 28.9116 14.1749 32.9384 14.1741C33.1242 14.1741 33.3115 14.1845 33.4957 14.1656C34.1563 14.0982 34.642 13.5628 34.6358 12.9219C34.6296 12.2813 34.1371 11.761 33.4722 11.7009C33.3289 11.6878 33.1832 11.6947 33.0386 11.6947C24.9233 11.6959 16.808 11.697 8.69226 11.6986C8.54773 11.6986 8.40204 11.6913 8.25905 11.7059C7.59806 11.7745 7.11282 12.3075 7.11937 12.9493C7.12593 13.5914 7.61579 14.1105 8.28295 14.1706C8.46756 14.1872 8.65449 14.1776 8.84026 14.1776C12.8463 14.1776 16.8523 14.1768 20.8583 14.176ZM20.8853 21.1189C24.9121 21.1182 28.9386 21.1178 32.9654 21.1166C33.1716 21.1166 33.3817 21.1301 33.5836 21.0989C34.2053 21.0033 34.6558 20.4537 34.6366 19.839C34.6181 19.2474 34.1695 18.7386 33.5697 18.6538C33.367 18.6249 33.1577 18.638 32.9511 18.638C24.8979 18.6388 16.8442 18.6399 8.79093 18.6415C8.60515 18.6415 8.41746 18.6307 8.234 18.6519C7.60153 18.7247 7.13209 19.2393 7.12014 19.8567C7.10781 20.4984 7.58881 21.0395 8.24787 21.1116C8.43172 21.1317 8.61903 21.1205 8.80519 21.1205C12.832 21.1205 16.8589 21.1197 20.8853 21.1189ZM20.8992 28.0618C24.0792 28.0614 27.2593 28.0611 30.4394 28.0603C31.4307 28.0599 32.4224 28.0765 33.4129 28.0518C34.1213 28.0341 34.6316 27.498 34.6381 26.8312C34.6447 26.1664 34.1352 25.6356 33.4356 25.5848C33.2919 25.5744 33.1466 25.5805 33.002 25.5805C24.9279 25.5817 16.8538 25.5828 8.77975 25.5844C8.59398 25.5844 8.40589 25.5728 8.22282 25.5959C7.39379 25.7008 6.89892 26.541 7.22305 27.291C7.49092 27.9107 8.00236 28.0703 8.63329 28.0688C12.7218 28.0587 16.8103 28.0626 20.8992 28.0618ZM20.8803 32.525C16.8535 32.5257 12.827 32.5261 8.80017 32.5269C8.6144 32.5269 8.42671 32.5161 8.24325 32.5365C7.61001 32.6071 7.13787 33.1181 7.12246 33.7352C7.10665 34.3765 7.58573 34.9219 8.24325 34.9962C8.42709 35.0171 8.6144 35.0059 8.80017 35.0059C16.8535 35.0051 24.9071 35.004 32.9604 35.0024C33.1462 35.0024 33.3339 35.0136 33.5173 34.9928C34.2211 34.9122 34.7206 34.2852 34.632 33.6076C34.5445 32.9366 34.0153 32.525 33.2078 32.5246C29.0989 32.5223 24.9896 32.5246 20.8803 32.525ZM20.8753 41.948C24.9021 41.9472 28.9286 41.9469 32.9554 41.9461C33.1412 41.9461 33.3289 41.9573 33.5127 41.9368C34.171 41.8644 34.6528 41.3217 34.64 40.6811C34.6277 40.0645 34.1563 39.5492 33.525 39.4767C33.3412 39.4555 33.1539 39.4667 32.9681 39.4667C24.9148 39.4675 16.8612 39.4686 8.80788 39.4706C8.60169 39.4706 8.3924 39.4578 8.18929 39.4863C7.58881 39.5719 7.14173 40.0795 7.12361 40.6723C7.10511 41.2874 7.55528 41.8362 8.17696 41.9314C8.3793 41.9623 8.58897 41.9492 8.79516 41.9492C12.822 41.9492 16.8488 41.9484 20.8753 41.948ZM22.114 2.19922C22.1418 1.53977 21.618 0.958177 20.9562 0.913468C20.2725 0.867218 19.6658 1.41335 19.6381 2.09978C19.6111 2.76038 20.1341 3.34159 20.7951 3.3863C21.4781 3.43217 22.0851 2.88603 22.114 2.19922Z" fill="#FEFEFE"/>
    </g>
</svg>
